<svg width="2343" height="893" viewBox="0 0 2343 893" fill="none" xmlns="http://www.w3.org/2000/svg">
<g clip-path="url(#clip0_885_610)">
<path d="M342.291 72.5591C382.681 39.0091 429.431 13.2791 480.671 0.929059C482.184 0.562392 483.681 0.579059 485.161 0.979059C497.547 4.27906 509.254 7.84573 520.281 11.6791C546.261 20.7191 569.29 33.6691 591.491 49.4691C592.584 50.2424 592.461 50.6057 591.121 50.5591C551.107 49.1457 512.841 52.8191 476.321 61.5791C426.121 73.6124 381.061 95.2624 341.141 126.529C277.351 176.479 230.871 247.039 205.901 324.629C199.627 344.129 195.101 363.652 192.321 383.199C190.914 393.079 190.401 402.706 190.781 412.079C190.807 412.599 190.561 412.876 190.041 412.909L186.031 413.179C185.631 413.206 185.424 413.019 185.411 412.619C183.677 368.612 189.237 325.432 202.091 283.079C226.911 201.349 276.831 126.959 342.291 72.5591Z" fill="#00A9E0"/>
<path d="M222.098 150.609C190.812 194.303 170.028 243.169 159.748 297.209C129.108 458.279 200.938 635.359 345.838 717.169C346.238 717.403 346.438 717.749 346.438 718.209V892.199C346.438 892.813 346.182 892.956 345.668 892.629C335.348 886.143 325.412 879.536 315.858 872.809C259.545 833.183 208.458 788.399 162.598 738.459C71.5484 639.299 3.41837 515.849 0.478374 378.999C-0.788293 320.279 11.6584 265.146 37.8184 213.599C101.218 88.6692 234.788 13.4792 374.658 25.3392C375.945 25.4458 376.002 25.7725 374.828 26.3192C314.098 54.5592 260.858 96.4792 222.098 150.609Z" fill="#003DA5"/>
<path d="M718.03 371.611C717.64 447.141 692.93 519.251 647.2 579.561C603.04 637.791 541.55 679.761 472.51 701.041C440.604 710.881 406.617 715.854 370.55 715.961C370.11 715.961 369.7 715.848 369.32 715.621C365.9 713.594 362.827 711.474 360.1 709.261C301.554 661.721 262.114 601.621 241.78 528.961C241.759 528.881 241.756 528.797 241.772 528.716C241.788 528.635 241.823 528.559 241.873 528.493C241.923 528.427 241.988 528.374 242.062 528.337C242.136 528.3 242.217 528.281 242.3 528.281C283.66 528.221 324.924 528.234 366.09 528.321C373.57 528.334 380.214 528.088 386.02 527.581C467.68 520.481 530.74 451.471 530.37 369.311C530.01 288.411 468.42 220.681 387.98 212.481C382.42 211.914 375.837 211.651 368.23 211.691C351.437 211.778 334.1 211.791 316.22 211.731C316.151 211.729 316.085 211.708 316.027 211.67C315.97 211.631 315.925 211.577 315.898 211.514C315.871 211.451 315.862 211.381 315.873 211.313C315.884 211.246 315.914 211.182 315.96 211.131C357.167 164.798 406.544 131.671 464.09 111.751C500.82 99.0309 539.87 92.8709 578.49 93.2509C579.265 93.2638 580.018 93.515 580.65 93.9709C605.377 111.944 627.264 133.688 646.31 159.201C692.03 220.461 718.42 295.541 718.03 371.611Z" fill="#C8102E"/>
<path d="M1190.99 111.19C1209.21 107.69 1228.54 108.12 1246.2 113.22C1278.97 122.68 1302.73 150.37 1308.19 183.92C1311.32 203.1 1310.13 221.134 1304.64 238.02C1294.49 269.23 1267.35 292.36 1235.26 298.22C1218.3 301.314 1201.7 300.91 1185.47 297.01C1158.92 290.63 1137.74 272.42 1126.53 247.62C1117.11 226.77 1115.87 200.44 1120.97 178.3C1128.99 143.43 1156.07 117.9 1190.99 111.19ZM1162.11 197.19C1161.29 206.81 1162.07 215.68 1164.44 223.8C1169.82 242.17 1184.11 256.04 1203.05 259.65C1224.85 263.81 1245.19 256.1 1257.43 237.44C1266.14 224.15 1267.95 205.34 1264.71 190.01C1259.76 166.56 1241.22 149.49 1217.05 148.31C1186.83 146.83 1164.62 167.71 1162.11 197.19Z" fill="#00A9E0"/>
<path d="M868.742 239.03L868.722 296.7C868.722 296.788 868.704 296.875 868.671 296.957C868.637 297.038 868.588 297.112 868.525 297.174C868.463 297.236 868.389 297.286 868.308 297.319C868.227 297.353 868.14 297.37 868.052 297.37L826.322 297.38C825.948 297.38 825.762 297.194 825.762 296.82V112.29C825.762 111.937 825.935 111.76 826.282 111.76C847.188 111.694 868.222 111.704 889.382 111.79C901.442 111.837 912.975 113.294 923.982 116.16C948.152 122.45 960.522 139.71 963.052 163.57C965.042 182.26 962.682 203.66 949.422 217.54C940.795 226.567 930.225 232.457 917.712 235.21C901.912 238.69 885.172 239.13 869.262 238.52C869.194 238.518 869.127 238.529 869.064 238.553C869.001 238.578 868.944 238.615 868.895 238.662C868.847 238.71 868.808 238.767 868.782 238.83C868.755 238.894 868.742 238.962 868.742 239.03ZM893.352 147.6C885.918 146.874 877.888 146.657 869.262 146.95C868.908 146.957 868.732 147.137 868.732 147.49L868.742 202.8C868.742 202.921 868.789 203.036 868.873 203.122C868.957 203.208 869.071 203.258 869.192 203.26C883.282 203.46 911.452 204.88 917.652 187.7C920.718 179.2 920.665 170.41 917.492 161.33C914.162 151.81 902.682 148.52 893.352 147.6Z" fill="#00A9E0"/>
<path d="M1017.67 235.53C1017.59 235.53 1017.52 235.562 1017.46 235.618C1017.41 235.675 1017.38 235.751 1017.38 235.83V297.01C1017.38 297.111 1017.34 297.208 1017.26 297.279C1017.19 297.35 1017.09 297.39 1016.99 297.39L974.779 297.35C974.697 297.35 974.618 297.317 974.56 297.257C974.501 297.197 974.469 297.115 974.469 297.03L974.489 112.29C974.489 111.944 974.659 111.77 974.999 111.77C1000.02 111.664 1021.78 111.694 1040.28 111.86C1055.53 112 1072.23 115.54 1085.67 122.81C1100.55 130.86 1107.02 145.82 1108.61 162.13C1111.22 188.94 1105.67 218.69 1077.02 229.05C1076.96 229.072 1076.91 229.106 1076.87 229.151C1076.82 229.195 1076.79 229.249 1076.77 229.307C1076.75 229.366 1076.75 229.428 1076.75 229.489C1076.76 229.55 1076.78 229.609 1076.82 229.66L1122.52 296.94C1122.55 296.982 1122.57 297.032 1122.57 297.083C1122.57 297.134 1122.56 297.185 1122.54 297.23C1122.51 297.275 1122.48 297.314 1122.43 297.34C1122.39 297.367 1122.34 297.38 1122.29 297.38H1071.8C1071.33 297.38 1070.98 297.184 1070.73 296.79L1032.31 236.14C1032.05 235.734 1031.68 235.53 1031.21 235.53H1017.67ZM1060.05 191.58C1066.83 183.56 1066 168.86 1062.55 159.41C1060.73 154.417 1056.99 151.167 1051.34 149.66C1040.09 146.65 1028.91 147.21 1017.71 147.15C1017.32 147.15 1017.13 147.344 1017.13 147.73L1017.12 199.71C1017.12 200.017 1017.27 200.177 1017.58 200.19C1025.35 200.477 1033.05 200.18 1040.66 199.3C1047.13 198.56 1055.8 196.6 1060.05 191.58Z" fill="#00A9E0"/>
<path d="M1229.25 431.95C1229.03 431.577 1228.89 431.6 1228.82 432.02L1214.19 513.19C1214.12 513.543 1213.91 513.72 1213.55 513.72L1177.06 513.73C1177.01 513.73 1176.96 513.718 1176.91 513.695C1176.86 513.672 1176.82 513.639 1176.79 513.598C1176.76 513.557 1176.73 513.509 1176.72 513.457C1176.71 513.406 1176.71 513.352 1176.72 513.3L1211.97 336.21C1212.03 335.883 1212.23 335.713 1212.56 335.7L1214.42 335.62C1214.72 335.607 1214.94 335.733 1215.1 336L1278.32 447.72C1278.35 447.777 1278.4 447.823 1278.45 447.856C1278.51 447.888 1278.57 447.904 1278.64 447.903C1278.71 447.902 1278.77 447.884 1278.83 447.85C1278.89 447.816 1278.93 447.768 1278.97 447.71L1342.15 336.06C1342.29 335.813 1342.5 335.687 1342.79 335.68L1344.65 335.63C1345.01 335.623 1345.22 335.797 1345.29 336.15L1380.56 513.29C1380.62 513.583 1380.5 513.73 1380.2 513.73L1344.63 513.72C1344.21 513.72 1343.96 513.513 1343.88 513.1L1328.5 432.5C1328.39 431.94 1328.2 431.907 1327.92 432.4L1280.89 515.37C1280.69 515.72 1280.4 516.012 1280.05 516.214C1279.71 516.417 1279.31 516.523 1278.91 516.523C1278.5 516.523 1278.11 516.417 1277.76 516.214C1277.41 516.012 1277.12 515.72 1276.92 515.37L1229.25 431.95Z" fill="#193C6A"/>
<path d="M2131.37 438.12L2131.42 338.8C2131.42 338.54 2131.55 338.41 2131.82 338.41L2167.2 338.43C2167.34 338.43 2167.47 338.485 2167.57 338.583C2167.66 338.68 2167.72 338.813 2167.72 338.95V515.76C2167.72 516.12 2167.54 516.304 2167.19 516.31C2166.23 516.33 2165.59 516.324 2165.26 516.29C2164.95 516.258 2164.66 516.14 2164.41 515.95C2164.27 515.85 2127.48 481.804 2054.04 413.81C2053.6 413.404 2053.38 413.5 2053.38 414.1V513.37C2053.38 513.466 2053.34 513.557 2053.27 513.625C2053.2 513.693 2053.11 513.73 2053.01 513.73H2017.52C2017.46 513.73 2017.4 513.719 2017.34 513.695C2017.29 513.672 2017.24 513.638 2017.19 513.596C2017.15 513.553 2017.12 513.502 2017.09 513.446C2017.07 513.391 2017.06 513.331 2017.06 513.27V336.34C2017.06 335.854 2017.3 335.617 2017.79 335.63L2019.27 335.69C2019.7 335.704 2020.07 335.857 2020.38 336.15L2131.06 438.26C2131.09 438.283 2131.12 438.297 2131.15 438.302C2131.19 438.306 2131.22 438.301 2131.26 438.286C2131.29 438.272 2131.32 438.249 2131.34 438.219C2131.36 438.19 2131.37 438.156 2131.37 438.12Z" fill="#193C6A"/>
<path d="M2228.43 486.91L2217.14 513.17C2216.98 513.536 2216.7 513.72 2216.3 513.72L2178.93 513.73C2178.53 513.73 2178.41 513.547 2178.58 513.18L2258.74 336.75C2258.91 336.383 2259.17 336.072 2259.51 335.854C2259.85 335.636 2260.24 335.52 2260.65 335.52C2261.05 335.52 2261.44 335.636 2261.78 335.854C2262.12 336.072 2262.39 336.383 2262.55 336.75L2342.45 513.17C2342.62 513.543 2342.5 513.73 2342.09 513.73H2303.28C2303.13 513.73 2302.98 513.686 2302.86 513.602C2302.73 513.518 2302.63 513.399 2302.57 513.26L2291.59 487.11C2291.48 486.837 2291.27 486.7 2290.97 486.7H2228.74C2228.67 486.699 2228.61 486.719 2228.55 486.757C2228.5 486.794 2228.46 486.848 2228.43 486.91ZM2239.87 457.12C2239.85 457.171 2239.84 457.226 2239.85 457.281C2239.85 457.336 2239.87 457.389 2239.9 457.434C2239.93 457.48 2239.97 457.517 2240.02 457.543C2240.07 457.568 2240.13 457.581 2240.18 457.58H2280.02C2280.08 457.581 2280.13 457.568 2280.18 457.543C2280.23 457.517 2280.27 457.48 2280.3 457.434C2280.33 457.389 2280.35 457.336 2280.36 457.281C2280.36 457.226 2280.35 457.171 2280.33 457.12L2260.4 409.92C2260.37 409.862 2260.33 409.814 2260.28 409.78C2260.23 409.745 2260.16 409.727 2260.1 409.727C2260.04 409.727 2259.98 409.745 2259.92 409.78C2259.87 409.814 2259.83 409.862 2259.8 409.92L2239.87 457.12Z" fill="#193C6A"/>
<path d="M1062.48 515.35C1032.52 511.55 1008.54 493.99 996.009 466.28C990.039 453.1 987.929 437.64 988.309 422.71C988.839 401.74 994.829 382.12 1008.12 366.31C1021.65 350.197 1039.27 340.454 1060.97 337.08C1089.37 332.67 1119.47 337.67 1141.03 357.14C1164.52 378.33 1172.38 408.34 1168.68 439.19C1164.1 477.44 1136.86 507.45 1098.88 514.51C1087.25 516.677 1075.12 516.957 1062.48 515.35ZM1110.98 471.57C1126.54 459.14 1132.23 441.16 1131.12 421.46C1130.38 408.24 1126.12 396.07 1117.35 386.47C1107.11 375.257 1094.37 369.634 1079.12 369.6C1063.03 369.56 1049.94 375.31 1039.83 386.85C1026.07 402.57 1023.85 424.84 1028.96 444.58C1030.63 451.02 1033.58 456.984 1037.82 462.47C1048.3 476.05 1062.92 482.28 1079.85 482.12C1091.4 482.01 1101.99 478.75 1110.98 471.57Z" fill="#193C6A"/>
<path d="M1574.05 438.04L1574.04 338.7C1574.04 338.634 1574.07 338.57 1574.11 338.523C1574.16 338.476 1574.23 338.45 1574.3 338.45L1610 338.43C1610.09 338.43 1610.17 338.464 1610.23 338.524C1610.29 338.584 1610.33 338.665 1610.33 338.75V515.75C1610.33 516.137 1610.13 516.327 1609.75 516.32L1607.78 516.28C1607.55 516.274 1607.33 516.185 1607.16 516.03L1496.43 413.6C1496.39 413.566 1496.35 413.542 1496.3 413.533C1496.26 413.524 1496.21 413.53 1496.16 413.549C1496.12 413.569 1496.08 413.601 1496.05 413.642C1496.03 413.684 1496.02 413.732 1496.02 413.78V513.23C1496.02 513.563 1495.85 513.73 1495.52 513.73H1459.98C1459.82 513.73 1459.74 513.647 1459.74 513.48V336.23C1459.74 336.076 1459.8 335.929 1459.91 335.82C1460.02 335.711 1460.16 335.65 1460.32 335.65C1461.42 335.67 1462.28 335.45 1463.18 336.28C1500.01 370.267 1536.84 404.243 1573.66 438.21C1573.69 438.242 1573.73 438.263 1573.78 438.271C1573.82 438.279 1573.87 438.274 1573.91 438.256C1573.95 438.237 1573.99 438.207 1574.01 438.169C1574.04 438.13 1574.05 438.086 1574.05 438.04Z" fill="#193C6A"/>
<path d="M1832.63 383.82C1810.14 368.3 1773.95 362.78 1751.19 380.6C1734.16 393.93 1728.33 413.93 1730.95 435.16C1734.38 462.99 1755.38 480.6 1782.97 482.02C1797.63 482.78 1811.7 480.016 1825.18 473.73C1827.51 472.643 1830.94 470.69 1835.48 467.87C1835.91 467.603 1836.13 467.726 1836.13 468.24V504.05C1836.13 504.254 1836.08 504.455 1835.97 504.632C1835.87 504.809 1835.73 504.957 1835.55 505.06C1832.66 506.753 1829.71 508.153 1826.69 509.26C1809.31 515.593 1790.5 517.693 1770.27 515.56C1751.55 513.58 1733.93 506.65 1720.25 494.08C1704.58 479.68 1695.5 461.2 1692.97 440.29C1690.69 421.5 1692.78 401.3 1700.9 384.53C1714.97 355.46 1742.29 338.33 1774.69 336.01C1794.55 334.59 1815.6 336.88 1832.78 347.15C1833.12 347.356 1833.29 347.66 1833.29 348.06L1833.3 383.47C1833.3 384.016 1833.08 384.133 1832.63 383.82Z" fill="#193C6A"/>
<path d="M1892.13 486.97L1880.89 513.16C1880.73 513.54 1880.45 513.73 1880.04 513.73L1842.77 513.72C1842.69 513.72 1842.62 513.701 1842.55 513.665C1842.48 513.629 1842.43 513.577 1842.39 513.513C1842.35 513.449 1842.32 513.376 1842.32 513.3C1842.31 513.224 1842.33 513.149 1842.36 513.08L1922.49 336.74C1922.65 336.375 1922.92 336.065 1923.26 335.849C1923.59 335.632 1923.98 335.518 1924.39 335.519C1924.79 335.52 1925.18 335.636 1925.52 335.855C1925.85 336.073 1926.12 336.384 1926.29 336.75L2006.24 513.29C2006.26 513.335 2006.27 513.385 2006.27 513.436C2006.26 513.486 2006.25 513.535 2006.22 513.578C2006.19 513.62 2006.15 513.656 2006.11 513.681C2006.06 513.706 2006.01 513.719 2005.96 513.72L1967.02 513.73C1966.87 513.73 1966.72 513.685 1966.6 513.601C1966.47 513.517 1966.37 513.398 1966.32 513.26L1955.33 487.11C1955.22 486.837 1955.01 486.7 1954.72 486.7H1892.54C1892.45 486.701 1892.37 486.726 1892.3 486.774C1892.22 486.822 1892.16 486.89 1892.13 486.97ZM1903.62 457.12C1903.6 457.17 1903.59 457.224 1903.59 457.278C1903.6 457.333 1903.62 457.385 1903.65 457.43C1903.67 457.476 1903.72 457.513 1903.76 457.539C1903.81 457.565 1903.86 457.579 1903.92 457.58H1943.76C1943.81 457.579 1943.87 457.565 1943.91 457.539C1943.96 457.513 1944 457.476 1944.03 457.43C1944.06 457.385 1944.08 457.333 1944.08 457.278C1944.09 457.224 1944.08 457.17 1944.06 457.12L1924.14 409.91C1924.11 409.853 1924.07 409.804 1924.02 409.77C1923.96 409.736 1923.9 409.717 1923.84 409.717C1923.78 409.717 1923.71 409.736 1923.66 409.77C1923.61 409.804 1923.56 409.853 1923.54 409.91L1903.62 457.12Z" fill="#193C6A"/>
<path d="M1396.88 338.43L1433.23 338.42C1433.6 338.42 1433.79 338.607 1433.79 338.98V513.21C1433.79 513.61 1433.59 513.803 1433.19 513.79C1428.62 513.637 1423.84 513.64 1418.84 513.8C1413.41 513.967 1409.4 513.507 1406.82 512.42C1400.58 509.81 1396.44 503.86 1396.44 497.09C1396.41 442.163 1396.42 389.413 1396.47 338.84C1396.47 338.567 1396.61 338.43 1396.88 338.43Z" fill="#193C6A"/>
<path d="M974.34 452.1C971.11 468.39 962.85 483.85 949.45 493.26C927.94 508.36 900 513.52 872.98 513.67C857.267 513.75 841.607 513.76 826 513.7C825.833 513.7 825.75 513.62 825.75 513.46V338.78C825.75 338.586 825.85 338.486 826.05 338.48C840.983 338.38 855.967 338.373 871 338.46C887.46 338.54 902.09 339.7 916.99 342.82C923.55 344.2 930.08 346 936.26 348.79C946.953 353.61 956.057 361.16 963.57 371.44C969.67 379.79 973.47 390.36 975.16 400.68C977.98 418 977.707 435.14 974.34 452.1ZM919.24 378.84C903.01 369.7 883.04 368.83 863.73 368.73C863.257 368.73 863.02 368.966 863.02 369.44V482.51C863.02 482.743 863.137 482.863 863.37 482.87C874.45 483.243 884.923 482.463 894.79 480.53C912.23 477.1 927.7 468.5 934.33 451.17C939.25 438.29 939.73 423.42 937.83 409.82C936.03 396.92 930.64 385.27 919.24 378.84Z" fill="#193C6A"/>
<path d="M1636.15 486.59C1636.09 437.303 1636.08 388.043 1636.13 338.81C1636.13 338.709 1636.17 338.612 1636.24 338.541C1636.32 338.47 1636.42 338.43 1636.52 338.43L1672.98 338.44C1673.35 338.44 1673.53 338.623 1673.53 338.99V513.2C1673.53 513.606 1673.33 513.803 1672.92 513.79C1668.11 513.643 1663.25 513.643 1658.34 513.79C1652.69 513.956 1648.59 513.426 1646.03 512.2C1638.05 508.39 1635.91 501.64 1636.08 493.43C1636.13 491.17 1636.15 488.89 1636.15 486.59Z" fill="#193C6A"/>
<path d="M1751.7 561.71L1758.04 551.43C1758.08 551.361 1758.14 551.308 1758.22 551.28C1758.29 551.253 1758.37 551.253 1758.45 551.28L1762.48 552.74C1762.53 552.757 1762.58 552.787 1762.62 552.826C1762.65 552.865 1762.68 552.912 1762.7 552.964C1762.71 553.016 1762.72 553.07 1762.71 553.124C1762.7 553.177 1762.67 553.227 1762.64 553.27L1756.11 562.08C1756.08 562.123 1756.04 562.158 1755.99 562.182C1755.94 562.206 1755.89 562.219 1755.84 562.22L1751.99 562.23C1751.93 562.23 1751.87 562.214 1751.82 562.184C1751.76 562.153 1751.72 562.109 1751.69 562.056C1751.66 562.002 1751.65 561.942 1751.65 561.882C1751.65 561.821 1751.67 561.762 1751.7 561.71Z" fill="#193C6A"/>
<path d="M2248.8 561.75L2255.2 551.42C2255.24 551.359 2255.3 551.313 2255.36 551.289C2255.43 551.265 2255.5 551.266 2255.57 551.29L2259.65 552.74C2259.7 552.757 2259.74 552.784 2259.77 552.819C2259.8 552.855 2259.83 552.898 2259.84 552.944C2259.86 552.991 2259.86 553.041 2259.85 553.088C2259.84 553.136 2259.82 553.181 2259.79 553.22L2253.28 562.08C2253.25 562.12 2253.22 562.152 2253.17 562.175C2253.13 562.198 2253.08 562.21 2253.03 562.21L2249.07 562.23C2249.01 562.232 2248.96 562.218 2248.91 562.19C2248.86 562.163 2248.82 562.122 2248.79 562.072C2248.76 562.023 2248.75 561.966 2248.75 561.91C2248.75 561.853 2248.77 561.797 2248.8 561.75Z" fill="#193C6A"/>
<path d="M878.272 577.05L874.772 580.79C874.639 580.923 874.505 580.927 874.372 580.8C867.072 573.747 858.912 571.917 849.892 575.31C837.122 580.11 831.772 597.02 840.242 608.35C848.692 619.66 864.212 620.78 874.202 610.58C874.247 610.533 874.301 610.497 874.361 610.472C874.421 610.447 874.486 610.435 874.551 610.436C874.616 610.437 874.681 610.451 874.741 610.477C874.802 610.504 874.856 610.542 874.902 610.59L878.182 614.04C878.335 614.207 878.332 614.367 878.172 614.52C872.198 620.46 865.072 623.277 856.792 622.97C841.742 622.41 829.082 609.85 830.022 594.31C831.522 569.65 861.162 559.73 878.272 576.8C878.352 576.88 878.352 576.963 878.272 577.05Z" fill="#193C6A"/>
<path d="M1140.28 595.571C1140.29 599.174 1139.56 602.744 1138.16 606.075C1136.75 609.407 1134.68 612.435 1132.07 614.988C1129.46 617.541 1126.36 619.567 1122.95 620.952C1119.53 622.337 1115.88 623.053 1112.18 623.06C1108.48 623.066 1104.82 622.363 1101.4 620.99C1097.98 619.617 1094.88 617.601 1092.26 615.057C1089.64 612.514 1087.56 609.493 1086.14 606.166C1084.72 602.839 1083.99 599.272 1083.98 595.669C1083.97 592.065 1084.7 588.496 1086.11 585.164C1087.51 581.833 1089.58 578.804 1092.19 576.251C1094.8 573.699 1097.9 571.672 1101.31 570.287C1104.73 568.902 1108.39 568.186 1112.08 568.18C1115.78 568.173 1119.44 568.877 1122.86 570.25C1126.28 571.623 1129.38 573.639 1132 576.182C1134.62 578.725 1136.7 581.747 1138.12 585.074C1139.54 588.4 1140.27 591.967 1140.28 595.571ZM1134.08 595.63C1134.08 589.811 1131.77 584.23 1127.65 580.116C1123.54 576.001 1117.96 573.69 1112.14 573.69C1106.32 573.69 1100.74 576.001 1096.63 580.116C1092.51 584.23 1090.2 589.811 1090.2 595.63C1090.2 601.449 1092.51 607.029 1096.63 611.144C1100.74 615.258 1106.32 617.57 1112.14 617.57C1117.96 617.57 1123.54 615.258 1127.65 611.144C1131.77 607.029 1134.08 601.449 1134.08 595.63Z" fill="#193C6A"/>
<path d="M1503.97 595.62C1503.97 599.223 1503.24 602.789 1501.82 606.117C1500.41 609.445 1498.34 612.469 1495.72 615.016C1493.11 617.563 1490 619.584 1486.58 620.962C1483.17 622.341 1479.51 623.05 1475.81 623.05C1468.34 623.05 1461.18 620.16 1455.9 615.016C1450.62 609.872 1447.65 602.895 1447.65 595.62C1447.65 588.346 1450.62 581.369 1455.9 576.224C1461.18 571.08 1468.34 568.19 1475.81 568.19C1479.51 568.19 1483.17 568.9 1486.58 570.278C1490 571.657 1493.11 573.677 1495.72 576.224C1498.34 578.772 1500.41 581.795 1501.82 585.123C1503.24 588.451 1503.97 592.018 1503.97 595.62ZM1497.75 595.63C1497.75 589.812 1495.44 584.231 1491.32 580.117C1487.21 576.002 1481.63 573.69 1475.81 573.69C1469.99 573.69 1464.41 576.002 1460.29 580.117C1456.18 584.231 1453.87 589.812 1453.87 595.63C1453.87 601.449 1456.18 607.03 1460.29 611.144C1464.41 615.259 1469.99 617.57 1475.81 617.57C1481.63 617.57 1487.21 615.259 1491.32 611.144C1495.44 607.03 1497.75 601.449 1497.75 595.63Z" fill="#193C6A"/>
<path d="M1694.57 610.59C1694.71 610.464 1694.85 610.46 1695 610.58C1696.65 611.967 1697.81 613.22 1698.49 614.34C1698.52 614.387 1698.51 614.427 1698.47 614.46C1687.6 625.17 1671.41 625.95 1659.84 616.31C1651.04 608.98 1647.86 596.54 1652 585.96C1659.39 567.12 1684.05 562.08 1698.29 576.63C1698.5 576.837 1698.5 577.047 1698.3 577.26L1695.16 580.62C1695.11 580.674 1695.05 580.717 1694.98 580.746C1694.91 580.776 1694.84 580.792 1694.77 580.792C1694.69 580.793 1694.62 580.78 1694.55 580.752C1694.48 580.724 1694.42 580.682 1694.37 580.63C1690.2 576.377 1685.35 574.087 1679.82 573.76C1660.07 572.6 1648.79 595.85 1662.17 610.48C1664.14 612.633 1666.27 614.227 1668.54 615.26C1677.97 619.534 1686.64 617.977 1694.57 610.59Z" fill="#193C6A"/>
<path d="M1782.94 595.62C1782.94 602.897 1779.97 609.877 1774.7 615.023C1769.42 620.169 1762.26 623.06 1754.79 623.06C1747.32 623.06 1740.16 620.169 1734.89 615.023C1729.61 609.877 1726.64 602.897 1726.64 595.62C1726.64 588.342 1729.61 581.363 1734.89 576.217C1740.16 571.071 1747.32 568.18 1754.79 568.18C1762.26 568.18 1769.42 571.071 1774.7 576.217C1779.97 581.363 1782.94 588.342 1782.94 595.62ZM1776.74 595.63C1776.74 589.811 1774.43 584.23 1770.31 580.116C1766.2 576.001 1760.62 573.69 1754.8 573.69C1748.98 573.69 1743.4 576.001 1739.29 580.116C1735.17 584.23 1732.86 589.811 1732.86 595.63C1732.86 601.449 1735.17 607.029 1739.29 611.144C1743.4 615.258 1748.98 617.57 1754.8 617.57C1760.62 617.57 1766.2 615.258 1770.31 611.144C1774.43 607.029 1776.74 601.449 1776.74 595.63Z" fill="#193C6A"/>
<path d="M2191.72 578.59C2186.91 576.09 2182.15 574.537 2177.45 573.93C2171.11 573.12 2162.74 574.58 2161.71 582.2C2160.87 588.44 2167.1 590.9 2172.12 591.52C2181.32 592.66 2194.57 594.57 2195.09 606.45C2195.5 616.02 2188.75 621.23 2180.01 622.54C2170.42 623.987 2161.63 622.467 2153.64 617.98C2153.52 617.913 2153.49 617.817 2153.54 617.69L2155.69 612.69C2155.7 612.659 2155.72 612.632 2155.75 612.609C2155.77 612.586 2155.8 612.569 2155.84 612.559C2155.87 612.549 2155.9 612.545 2155.94 612.549C2155.97 612.552 2156 612.563 2156.03 612.58C2163.22 616.54 2170.49 618.13 2177.82 617.35C2183.95 616.69 2189.75 613.14 2188.67 606.09C2187.51 598.43 2175.87 597.17 2169.38 596.27C2162.59 595.33 2155.35 591.77 2155.41 583.72C2155.47 574 2162.64 569.04 2171.65 568.33C2179.05 567.757 2186.4 569.44 2193.71 573.38C2193.87 573.473 2193.92 573.603 2193.85 573.77L2192.15 578.42C2192.07 578.647 2191.93 578.703 2191.72 578.59Z" fill="#193C6A"/>
<path d="M2280.09 595.423C2280.14 602.701 2277.22 609.7 2271.98 614.883C2266.74 620.066 2259.6 623.007 2252.13 623.059C2248.43 623.085 2244.77 622.401 2241.34 621.046C2237.92 619.69 2234.8 617.691 2232.17 615.161C2229.54 612.631 2227.44 609.621 2226.01 606.302C2224.57 602.983 2223.81 599.42 2223.79 595.816C2223.74 588.539 2226.66 581.539 2231.9 576.356C2237.14 571.173 2244.28 568.233 2251.75 568.18C2255.44 568.155 2259.11 568.839 2262.53 570.194C2265.96 571.549 2269.08 573.548 2271.71 576.078C2274.34 578.608 2276.43 581.618 2277.87 584.938C2279.31 588.257 2280.06 591.82 2280.09 595.423ZM2273.88 595.63C2273.88 589.811 2271.57 584.23 2267.45 580.116C2263.34 576.001 2257.76 573.69 2251.94 573.69C2246.12 573.69 2240.54 576.001 2236.42 580.116C2232.31 584.23 2230 589.811 2230 595.63C2230 601.449 2232.31 607.029 2236.42 611.144C2240.54 615.258 2246.12 617.57 2251.94 617.57C2257.76 617.57 2263.34 615.258 2267.45 611.144C2271.57 607.029 2273.88 601.449 2273.88 595.63Z" fill="#193C6A"/>
<path d="M895.478 599L895.468 616.19C895.468 616.278 895.503 616.362 895.565 616.424C895.627 616.486 895.711 616.52 895.798 616.52H923.928C924.016 616.52 924.1 616.555 924.162 616.617C924.224 616.679 924.258 616.763 924.258 616.85L924.268 621.75C924.268 621.838 924.234 621.922 924.172 621.984C924.11 622.046 924.026 622.08 923.938 622.08H889.568C889.481 622.08 889.397 622.046 889.335 621.984C889.273 621.922 889.238 621.838 889.238 621.75V569.78C889.238 569.693 889.273 569.609 889.335 569.547C889.397 569.485 889.481 569.45 889.568 569.45L923.678 569.44C923.766 569.44 923.85 569.475 923.912 569.537C923.974 569.599 924.008 569.683 924.008 569.77L923.978 574.68C923.978 574.724 923.97 574.767 923.953 574.807C923.937 574.847 923.912 574.883 923.882 574.914C923.851 574.944 923.815 574.969 923.775 574.985C923.735 575.002 923.692 575.01 923.648 575.01L895.808 574.98C895.721 574.98 895.637 575.015 895.575 575.077C895.513 575.139 895.478 575.223 895.478 575.31L895.468 592.92C895.468 593.008 895.503 593.092 895.565 593.154C895.627 593.216 895.711 593.25 895.798 593.25H919.918C920.006 593.25 920.09 593.285 920.152 593.347C920.213 593.409 920.248 593.493 920.248 593.58V598.33C920.248 598.418 920.213 598.502 920.152 598.564C920.09 598.626 920.006 598.66 919.918 598.66L895.808 598.67C895.765 598.67 895.722 598.679 895.682 598.696C895.642 598.712 895.606 598.736 895.575 598.767C895.544 598.798 895.52 598.834 895.503 598.874C895.487 598.914 895.478 598.957 895.478 599Z" fill="#193C6A"/>
<path d="M1876.01 599.02L1875.99 616.17C1875.99 616.263 1876.03 616.352 1876.09 616.418C1876.16 616.484 1876.25 616.52 1876.34 616.52L1904.47 616.53C1904.56 616.53 1904.65 616.567 1904.72 616.633C1904.78 616.699 1904.82 616.788 1904.82 616.88L1904.84 621.72C1904.84 621.813 1904.8 621.902 1904.74 621.968C1904.67 622.034 1904.58 622.07 1904.49 622.07H1870.1C1870.01 622.07 1869.92 622.034 1869.85 621.968C1869.79 621.902 1869.75 621.813 1869.75 621.72L1869.74 569.8C1869.74 569.708 1869.78 569.619 1869.84 569.553C1869.91 569.487 1870 569.45 1870.09 569.45L1904.18 569.44C1904.27 569.44 1904.36 569.477 1904.43 569.543C1904.49 569.609 1904.53 569.698 1904.53 569.79L1904.51 574.66C1904.51 574.753 1904.47 574.842 1904.41 574.908C1904.34 574.974 1904.25 575.01 1904.16 575.01L1876.33 574.97C1876.24 574.97 1876.15 575.007 1876.08 575.073C1876.02 575.139 1875.98 575.228 1875.98 575.32L1876.01 592.9C1876.01 592.993 1876.05 593.082 1876.11 593.148C1876.18 593.214 1876.27 593.25 1876.36 593.25L1900.46 593.26C1900.55 593.26 1900.64 593.297 1900.71 593.363C1900.77 593.429 1900.81 593.518 1900.81 593.61L1900.85 598.31C1900.85 598.403 1900.81 598.492 1900.75 598.558C1900.68 598.624 1900.59 598.66 1900.5 598.66L1876.36 598.67C1876.27 598.67 1876.18 598.707 1876.11 598.773C1876.05 598.839 1876.01 598.928 1876.01 599.02Z" fill="#193C6A"/>
<path d="M2069.8 593.25H2093.92C2094.01 593.25 2094.09 593.285 2094.15 593.347C2094.21 593.409 2094.25 593.493 2094.25 593.58L2094.26 598.33C2094.26 598.418 2094.22 598.502 2094.16 598.564C2094.1 598.626 2094.02 598.66 2093.93 598.66L2069.8 598.67C2069.76 598.67 2069.71 598.679 2069.67 598.696C2069.63 598.712 2069.6 598.736 2069.56 598.767C2069.53 598.798 2069.51 598.834 2069.49 598.874C2069.48 598.914 2069.47 598.957 2069.47 599V616.19C2069.47 616.234 2069.48 616.277 2069.49 616.317C2069.51 616.357 2069.53 616.393 2069.56 616.424C2069.6 616.454 2069.63 616.479 2069.67 616.495C2069.71 616.512 2069.76 616.52 2069.8 616.52H2097.93C2098.02 616.52 2098.1 616.555 2098.16 616.617C2098.22 616.679 2098.26 616.763 2098.26 616.85V621.75C2098.26 621.838 2098.22 621.922 2098.16 621.984C2098.1 622.046 2098.02 622.08 2097.93 622.08H2063.57C2063.53 622.08 2063.48 622.072 2063.44 622.055C2063.4 622.039 2063.37 622.014 2063.33 621.984C2063.3 621.953 2063.28 621.917 2063.26 621.877C2063.25 621.837 2063.24 621.794 2063.24 621.75V569.78C2063.24 569.737 2063.25 569.694 2063.26 569.654C2063.28 569.614 2063.3 569.578 2063.33 569.547C2063.37 569.516 2063.4 569.492 2063.44 569.476C2063.48 569.459 2063.53 569.45 2063.57 569.45L2097.68 569.44C2097.77 569.44 2097.85 569.475 2097.91 569.537C2097.97 569.599 2098.01 569.683 2098.01 569.77L2097.97 574.68C2097.97 574.724 2097.96 574.767 2097.94 574.807C2097.93 574.847 2097.9 574.883 2097.87 574.914C2097.84 574.944 2097.8 574.969 2097.76 574.985C2097.72 575.002 2097.68 575.01 2097.64 575.01L2069.8 574.98C2069.76 574.98 2069.71 574.989 2069.67 575.006C2069.63 575.022 2069.6 575.046 2069.56 575.077C2069.53 575.108 2069.51 575.144 2069.49 575.184C2069.48 575.224 2069.47 575.267 2069.47 575.31V592.92C2069.47 592.964 2069.48 593.007 2069.49 593.047C2069.51 593.087 2069.53 593.123 2069.56 593.154C2069.6 593.184 2069.63 593.209 2069.67 593.225C2069.71 593.242 2069.76 593.25 2069.8 593.25Z" fill="#193C6A"/>
<path d="M940.502 581.02V621.78C940.502 621.863 940.469 621.941 940.411 622C940.353 622.058 940.274 622.09 940.192 622.09L934.572 622.08C934.531 622.08 934.491 622.072 934.453 622.057C934.415 622.041 934.381 622.018 934.352 621.99C934.324 621.961 934.301 621.927 934.285 621.889C934.27 621.851 934.262 621.811 934.262 621.77V569.76C934.262 569.678 934.294 569.599 934.352 569.541C934.411 569.483 934.489 569.45 934.572 569.45H939.372C939.418 569.451 939.464 569.462 939.505 569.483C939.547 569.504 939.583 569.534 939.612 569.57L972.232 610.46C972.272 610.51 972.328 610.546 972.39 610.563C972.452 610.58 972.517 610.578 972.578 610.556C972.638 610.534 972.69 610.493 972.727 610.441C972.763 610.388 972.783 610.325 972.782 610.26L972.772 569.75C972.772 569.71 972.78 569.669 972.795 569.632C972.811 569.594 972.834 569.56 972.862 569.531C972.891 569.502 972.925 569.48 972.963 569.464C973.001 569.448 973.041 569.44 973.082 569.44L978.732 569.46C978.814 569.46 978.893 569.493 978.951 569.551C979.009 569.609 979.042 569.688 979.042 569.77L979.022 621.74C979.022 621.823 978.989 621.902 978.931 621.96C978.873 622.018 978.794 622.05 978.712 622.05L973.962 622.09C973.915 622.09 973.87 622.079 973.828 622.058C973.787 622.037 973.75 622.007 973.722 621.97L941.052 580.83C941.012 580.781 940.957 580.746 940.896 580.728C940.835 580.711 940.77 580.713 940.71 580.734C940.65 580.754 940.598 580.793 940.561 580.844C940.524 580.895 940.503 580.957 940.502 581.02Z" fill="#193C6A"/>
<path d="M1011.18 575.15V621.71C1011.18 621.806 1011.14 621.897 1011.08 621.965C1011.01 622.032 1010.92 622.07 1010.82 622.07L1005.33 622.1C1005.28 622.1 1005.24 622.091 1005.19 622.073C1005.15 622.055 1005.11 622.028 1005.08 621.995C1005.04 621.961 1005.02 621.922 1005 621.878C1004.98 621.834 1004.97 621.787 1004.97 621.74L1004.96 575.15C1004.96 575.055 1004.92 574.963 1004.86 574.896C1004.79 574.828 1004.7 574.79 1004.6 574.79L988.282 574.78C988.186 574.78 988.095 574.742 988.027 574.675C987.96 574.607 987.922 574.516 987.922 574.42L987.972 569.81C987.972 569.715 988.01 569.623 988.077 569.556C988.145 569.488 988.236 569.45 988.332 569.45H1027.76C1027.86 569.45 1027.95 569.488 1028.02 569.556C1028.08 569.623 1028.12 569.715 1028.12 569.81L1028.14 574.42C1028.14 574.516 1028.1 574.607 1028.04 574.675C1027.97 574.742 1027.88 574.78 1027.78 574.78L1011.54 574.79C1011.45 574.79 1011.35 574.828 1011.29 574.896C1011.22 574.963 1011.18 575.055 1011.18 575.15Z" fill="#193C6A"/>
<path d="M1065.54 602.01L1077.76 621.9C1077.77 621.915 1077.77 621.932 1077.77 621.949C1077.77 621.966 1077.77 621.982 1077.76 621.997C1077.75 622.012 1077.74 622.025 1077.73 622.034C1077.71 622.044 1077.7 622.049 1077.68 622.05L1070.99 622.09C1070.75 622.09 1070.57 621.987 1070.45 621.78L1058.91 602.53C1058.75 602.27 1058.52 602.14 1058.22 602.14L1043.95 602.13C1043.51 602.13 1043.29 602.35 1043.29 602.79V621.78C1043.29 621.821 1043.28 621.861 1043.27 621.899C1043.25 621.936 1043.23 621.971 1043.2 621.999C1043.17 622.028 1043.14 622.051 1043.1 622.067C1043.06 622.082 1043.02 622.09 1042.98 622.09L1037.33 622.1C1037.26 622.1 1037.2 622.074 1037.15 622.027C1037.1 621.98 1037.07 621.916 1037.07 621.85V570C1037.07 569.6 1037.27 569.404 1037.67 569.41C1044.62 569.504 1051.41 569.497 1058.04 569.39C1067.2 569.23 1074.95 573.34 1076.4 583.01C1077.61 591.1 1073.81 598.68 1065.85 601.18C1065.39 601.32 1065.29 601.597 1065.54 602.01ZM1043.24 575.37V596.11C1043.24 596.196 1043.26 596.28 1043.29 596.359C1043.32 596.438 1043.37 596.509 1043.43 596.57C1043.49 596.63 1043.56 596.678 1043.64 596.711C1043.72 596.743 1043.81 596.76 1043.89 596.76H1059.17C1062.17 596.76 1065.05 595.617 1067.17 593.582C1069.29 591.548 1070.48 588.788 1070.48 585.91V585.57C1070.48 582.693 1069.29 579.933 1067.17 577.898C1065.05 575.863 1062.17 574.72 1059.17 574.72H1043.89C1043.81 574.72 1043.72 574.737 1043.64 574.77C1043.56 574.802 1043.49 574.85 1043.43 574.911C1043.37 574.971 1043.32 575.043 1043.29 575.121C1043.26 575.2 1043.24 575.285 1043.24 575.37Z" fill="#193C6A"/>
<path d="M1168.68 569.77C1168.68 569.69 1168.71 569.614 1168.77 569.558C1168.82 569.501 1168.9 569.47 1168.98 569.47L1190.08 569.43C1193.4 569.423 1196.7 570.053 1199.77 571.284C1202.84 572.515 1205.63 574.322 1207.99 576.603C1210.34 578.883 1212.21 581.593 1213.49 584.576C1214.76 587.56 1215.42 590.758 1215.43 593.99V597.41C1215.44 603.932 1212.79 610.192 1208.05 614.812C1203.32 619.433 1196.89 622.036 1190.18 622.05L1169.08 622.09C1169 622.09 1168.92 622.058 1168.87 622.002C1168.81 621.946 1168.78 621.869 1168.78 621.79L1168.68 569.77ZM1174.98 575.12V616.22C1174.98 616.302 1175.01 616.381 1175.07 616.439C1175.13 616.497 1175.21 616.53 1175.29 616.53H1189.52C1192.1 616.53 1194.66 616.026 1197.04 615.048C1199.43 614.07 1201.6 612.637 1203.42 610.83C1205.25 609.023 1206.7 606.878 1207.68 604.517C1208.67 602.156 1209.18 599.625 1209.18 597.07V594.27C1209.18 591.714 1208.67 589.184 1207.68 586.823C1206.7 584.462 1205.25 582.316 1203.42 580.509C1201.6 578.702 1199.43 577.269 1197.04 576.291C1194.66 575.313 1192.1 574.81 1189.52 574.81H1175.29C1175.21 574.81 1175.13 574.842 1175.07 574.901C1175.01 574.959 1174.98 575.038 1174.98 575.12Z" fill="#193C6A"/>
<path d="M1232.94 593.25H1257.05C1257.1 593.25 1257.15 593.259 1257.19 593.278C1257.23 593.296 1257.27 593.322 1257.31 593.356C1257.34 593.389 1257.37 593.429 1257.38 593.472C1257.4 593.516 1257.41 593.563 1257.41 593.61L1257.43 598.31C1257.43 598.357 1257.42 598.404 1257.4 598.448C1257.39 598.492 1257.36 598.531 1257.33 598.565C1257.29 598.598 1257.25 598.625 1257.21 598.643C1257.17 598.661 1257.12 598.67 1257.07 598.67H1232.95C1232.86 598.67 1232.76 598.708 1232.7 598.776C1232.63 598.843 1232.59 598.935 1232.59 599.03L1232.58 616.16C1232.58 616.207 1232.59 616.254 1232.61 616.298C1232.63 616.342 1232.65 616.381 1232.69 616.415C1232.72 616.448 1232.76 616.475 1232.8 616.493C1232.85 616.511 1232.89 616.52 1232.94 616.52H1261.08C1261.13 616.52 1261.18 616.53 1261.22 616.548C1261.26 616.566 1261.3 616.592 1261.34 616.626C1261.37 616.659 1261.4 616.699 1261.41 616.742C1261.43 616.786 1261.44 616.833 1261.44 616.88L1261.45 621.72C1261.45 621.816 1261.41 621.907 1261.35 621.975C1261.28 622.042 1261.19 622.08 1261.09 622.08H1226.74C1226.65 622.08 1226.55 622.042 1226.49 621.975C1226.42 621.907 1226.38 621.816 1226.38 621.72L1226.37 569.81C1226.37 569.763 1226.38 569.716 1226.4 569.672C1226.42 569.629 1226.44 569.589 1226.48 569.556C1226.51 569.522 1226.55 569.496 1226.59 569.478C1226.64 569.46 1226.68 569.45 1226.73 569.45H1260.8C1260.9 569.45 1260.99 569.488 1261.06 569.556C1261.12 569.623 1261.16 569.715 1261.16 569.81L1261.14 574.65C1261.14 574.697 1261.13 574.744 1261.11 574.788C1261.1 574.832 1261.07 574.871 1261.04 574.905C1261 574.938 1260.96 574.965 1260.92 574.983C1260.88 575.001 1260.83 575.01 1260.78 575.01L1232.95 574.98C1232.86 574.98 1232.76 575.018 1232.7 575.086C1232.63 575.153 1232.59 575.245 1232.59 575.34L1232.58 592.89C1232.58 592.937 1232.59 592.984 1232.61 593.028C1232.63 593.072 1232.65 593.111 1232.69 593.145C1232.72 593.178 1232.76 593.205 1232.8 593.223C1232.85 593.241 1232.89 593.25 1232.94 593.25Z" fill="#193C6A"/>
<path d="M1313.05 593.25H1337.16C1337.25 593.25 1337.34 593.286 1337.4 593.35C1337.46 593.414 1337.5 593.5 1337.5 593.59V598.33C1337.5 598.42 1337.46 598.507 1337.4 598.571C1337.34 598.634 1337.25 598.67 1337.16 598.67H1313.07C1312.98 598.67 1312.89 598.706 1312.83 598.77C1312.77 598.834 1312.73 598.92 1312.73 599.01L1312.71 616.18C1312.71 616.27 1312.75 616.357 1312.81 616.421C1312.87 616.484 1312.96 616.52 1313.05 616.52H1341.16C1341.25 616.52 1341.34 616.556 1341.4 616.62C1341.46 616.684 1341.5 616.77 1341.5 616.86L1341.52 621.74C1341.52 621.83 1341.48 621.917 1341.42 621.981C1341.36 622.044 1341.27 622.08 1341.18 622.08L1306.83 622.07C1306.74 622.07 1306.65 622.034 1306.59 621.971C1306.53 621.907 1306.49 621.82 1306.49 621.73L1306.48 569.8C1306.48 569.71 1306.52 569.624 1306.58 569.56C1306.64 569.496 1306.73 569.46 1306.82 569.46L1340.93 569.45C1341.02 569.45 1341.11 569.486 1341.17 569.55C1341.23 569.614 1341.27 569.7 1341.27 569.79L1341.26 574.68C1341.26 574.77 1341.22 574.857 1341.16 574.921C1341.1 574.984 1341.01 575.02 1340.92 575.02L1313.05 574.96C1312.96 574.96 1312.87 574.996 1312.81 575.06C1312.75 575.124 1312.71 575.21 1312.71 575.3V592.91C1312.71 593 1312.75 593.087 1312.81 593.151C1312.87 593.214 1312.96 593.25 1313.05 593.25Z" fill="#193C6A"/>
<path d="M1370.42 590.11L1385.44 569.6C1385.47 569.557 1385.51 569.521 1385.56 569.497C1385.61 569.473 1385.66 569.46 1385.71 569.46L1392.35 569.55C1392.41 569.55 1392.47 569.568 1392.52 569.601C1392.58 569.633 1392.62 569.68 1392.64 569.735C1392.67 569.79 1392.68 569.851 1392.68 569.912C1392.67 569.973 1392.65 570.031 1392.61 570.08L1374.21 594.49C1374.17 594.547 1374.14 594.618 1374.14 594.69C1374.14 594.762 1374.17 594.832 1374.21 594.89L1393.93 621.51C1393.97 621.559 1393.99 621.617 1394 621.678C1394 621.739 1393.99 621.8 1393.96 621.855C1393.94 621.91 1393.9 621.957 1393.84 621.989C1393.79 622.022 1393.73 622.039 1393.67 622.04L1387.06 622.1C1387.01 622.1 1386.96 622.087 1386.91 622.063C1386.86 622.039 1386.82 622.003 1386.79 621.96L1370.42 599.38C1370.39 599.337 1370.35 599.301 1370.3 599.277C1370.26 599.252 1370.2 599.24 1370.15 599.24C1370.1 599.24 1370.05 599.252 1370 599.277C1369.95 599.301 1369.91 599.337 1369.88 599.38L1353.52 621.94C1353.49 621.983 1353.45 622.019 1353.4 622.043C1353.36 622.067 1353.3 622.08 1353.25 622.08L1346.62 622.04C1346.56 622.038 1346.5 622.02 1346.45 621.988C1346.4 621.956 1346.36 621.911 1346.34 621.858C1346.31 621.804 1346.3 621.745 1346.3 621.685C1346.31 621.626 1346.33 621.569 1346.36 621.52L1366.07 594.91C1366.11 594.852 1366.14 594.782 1366.14 594.71C1366.14 594.638 1366.11 594.567 1366.07 594.51L1347.74 570.07C1347.71 570.021 1347.69 569.964 1347.68 569.905C1347.68 569.845 1347.69 569.786 1347.72 569.732C1347.74 569.679 1347.78 569.634 1347.83 569.602C1347.88 569.57 1347.94 569.552 1348 569.55L1354.64 569.5C1354.69 569.5 1354.75 569.513 1354.79 569.537C1354.84 569.561 1354.88 569.597 1354.91 569.64L1369.88 590.11C1369.91 590.153 1369.95 590.189 1370 590.213C1370.05 590.237 1370.1 590.25 1370.15 590.25C1370.2 590.25 1370.26 590.237 1370.3 590.213C1370.35 590.189 1370.39 590.153 1370.42 590.11Z" fill="#193C6A"/>
<path d="M1408.87 604.04L1408.89 621.69C1408.89 621.943 1408.77 622.07 1408.51 622.07L1403.13 622.09C1402.83 622.097 1402.67 621.943 1402.67 621.63V569.8C1402.67 569.54 1402.8 569.413 1403.06 569.42C1409.44 569.507 1416.02 569.493 1422.82 569.38C1426.18 569.32 1429.04 569.797 1431.4 570.81C1445.7 576.94 1444.42 598.51 1429.54 602.75C1427.13 603.437 1423.82 603.703 1419.62 603.55C1416.2 603.43 1412.78 603.427 1409.36 603.54C1409.04 603.547 1408.87 603.713 1408.87 604.04ZM1408.7 575.58L1408.82 597.24C1408.82 597.464 1408.92 597.677 1409.07 597.835C1409.23 597.992 1409.45 598.08 1409.67 598.08L1423.72 598.01C1425.24 598.002 1426.74 597.696 1428.14 597.109C1429.54 596.521 1430.81 595.665 1431.88 594.588C1432.95 593.51 1433.79 592.234 1434.36 590.831C1434.94 589.428 1435.23 587.925 1435.22 586.41V586.13C1435.21 584.615 1434.91 583.115 1434.32 581.718C1433.73 580.321 1432.87 579.054 1431.79 577.988C1430.71 576.921 1429.44 576.078 1428.03 575.505C1426.62 574.933 1425.12 574.642 1423.6 574.65L1409.55 574.72C1409.44 574.72 1409.33 574.742 1409.22 574.786C1409.12 574.829 1409.03 574.893 1408.95 574.972C1408.87 575.052 1408.81 575.147 1408.76 575.252C1408.72 575.356 1408.7 575.468 1408.7 575.58Z" fill="#193C6A"/>
<path d="M1543.45 601.27C1543.4 601.286 1543.35 601.314 1543.31 601.352C1543.27 601.389 1543.24 601.435 1543.22 601.486C1543.2 601.537 1543.19 601.592 1543.2 601.646C1543.2 601.701 1543.22 601.753 1543.25 601.8L1555.6 621.9C1555.61 621.908 1555.61 621.918 1555.61 621.928C1555.61 621.939 1555.61 621.95 1555.61 621.96C1555.6 621.97 1555.59 621.979 1555.58 621.986C1555.57 621.993 1555.56 621.998 1555.55 622C1554.64 622.087 1552.35 622.103 1548.68 622.05C1548.62 622.05 1548.55 622.034 1548.5 622.002C1548.44 621.971 1548.39 621.925 1548.36 621.87L1536.65 602.39C1536.6 602.311 1536.53 602.245 1536.45 602.2C1536.37 602.154 1536.27 602.13 1536.18 602.13H1521.75C1521.33 602.13 1521.12 602.34 1521.12 602.76L1521.13 621.72C1521.13 621.766 1521.12 621.811 1521.1 621.854C1521.09 621.896 1521.06 621.935 1521.03 621.967C1521 622 1520.96 622.026 1520.91 622.043C1520.87 622.061 1520.83 622.07 1520.78 622.07L1515.25 622.1C1515.16 622.1 1515.08 622.065 1515.02 622.003C1514.95 621.941 1514.92 621.858 1514.92 621.77L1514.91 569.84C1514.91 569.783 1514.92 569.726 1514.94 569.673C1514.97 569.62 1515 569.572 1515.04 569.532C1515.08 569.492 1515.13 569.461 1515.18 569.44C1515.24 569.419 1515.29 569.409 1515.35 569.41C1522.32 569.503 1529.21 569.497 1536.02 569.39C1541.7 569.3 1546.83 570.63 1550.56 574.84C1558.16 583.42 1554.59 597.9 1543.45 601.27ZM1521.11 575.28L1521.07 596.2C1521.07 596.343 1521.13 596.481 1521.23 596.582C1521.33 596.683 1521.47 596.74 1521.61 596.74L1537.18 596.76C1538.63 596.763 1540.07 596.49 1541.42 595.957C1542.76 595.424 1543.98 594.642 1545.01 593.655C1546.04 592.668 1546.86 591.495 1547.42 590.204C1547.98 588.913 1548.27 587.529 1548.27 586.13V585.43C1548.28 582.606 1547.11 579.895 1545.04 577.894C1542.97 575.893 1540.16 574.765 1537.22 574.76L1521.65 574.74C1521.51 574.74 1521.37 574.797 1521.27 574.898C1521.17 574.999 1521.11 575.137 1521.11 575.28Z" fill="#193C6A"/>
<path d="M1583.22 575.14L1583.21 621.74C1583.21 621.786 1583.2 621.832 1583.18 621.874C1583.17 621.917 1583.14 621.955 1583.11 621.988C1583.08 622.02 1583.04 622.046 1582.99 622.064C1582.95 622.081 1582.91 622.09 1582.86 622.09L1577.33 622.1C1577.24 622.1 1577.15 622.063 1577.08 621.998C1577.02 621.932 1576.98 621.843 1576.98 621.75V575.14C1576.98 575.047 1576.94 574.958 1576.88 574.893C1576.81 574.827 1576.72 574.79 1576.63 574.79L1560.33 574.78C1560.24 574.78 1560.15 574.743 1560.08 574.678C1560.02 574.612 1559.98 574.523 1559.98 574.43L1560.01 569.8C1560.01 569.707 1560.05 569.618 1560.11 569.553C1560.18 569.487 1560.27 569.45 1560.36 569.45H1599.82C1599.91 569.45 1600 569.487 1600.07 569.553C1600.13 569.618 1600.17 569.707 1600.17 569.8V574.43C1600.17 574.523 1600.13 574.612 1600.07 574.678C1600 574.743 1599.91 574.78 1599.82 574.78L1583.57 574.79C1583.48 574.79 1583.39 574.827 1583.32 574.893C1583.26 574.958 1583.22 575.047 1583.22 575.14Z" fill="#193C6A"/>
<path d="M1634.95 609.75H1608.31C1608.25 609.752 1608.19 609.77 1608.14 609.804C1608.09 609.838 1608.05 609.885 1608.03 609.94L1602.92 621.9C1602.89 621.957 1602.85 622.006 1602.8 622.04C1602.75 622.074 1602.69 622.091 1602.63 622.09L1596.71 622.08C1596.66 622.081 1596.61 622.069 1596.56 622.045C1596.52 622.021 1596.48 621.986 1596.45 621.944C1596.42 621.901 1596.4 621.852 1596.4 621.801C1596.39 621.75 1596.4 621.698 1596.42 621.65L1618.54 569.63C1618.56 569.574 1618.6 569.525 1618.65 569.491C1618.71 569.457 1618.77 569.44 1618.83 569.44L1624.49 569.46C1624.55 569.462 1624.61 569.48 1624.66 569.514C1624.71 569.548 1624.75 569.595 1624.77 569.65L1646.82 621.64C1646.84 621.688 1646.85 621.74 1646.84 621.791C1646.84 621.842 1646.82 621.891 1646.79 621.934C1646.76 621.976 1646.72 622.011 1646.68 622.035C1646.63 622.059 1646.58 622.071 1646.53 622.07L1640.55 622.05C1640.49 622.049 1640.43 622.031 1640.38 621.997C1640.33 621.963 1640.29 621.916 1640.27 621.86L1635.24 609.94C1635.21 609.883 1635.17 609.835 1635.12 609.801C1635.07 609.767 1635.01 609.75 1634.95 609.75ZM1610.58 603.89C1610.56 603.939 1610.55 603.992 1610.55 604.045C1610.56 604.098 1610.57 604.149 1610.6 604.194C1610.63 604.238 1610.67 604.275 1610.72 604.301C1610.76 604.326 1610.82 604.34 1610.87 604.34H1632.37C1632.42 604.34 1632.47 604.326 1632.52 604.301C1632.57 604.275 1632.61 604.238 1632.64 604.194C1632.66 604.149 1632.68 604.098 1632.69 604.045C1632.69 603.992 1632.68 603.939 1632.66 603.89L1621.91 578.58C1621.88 578.525 1621.84 578.479 1621.79 578.446C1621.74 578.413 1621.68 578.396 1621.62 578.396C1621.56 578.396 1621.5 578.413 1621.45 578.446C1621.4 578.479 1621.35 578.525 1621.33 578.58L1610.58 603.89Z" fill="#193C6A"/>
<path d="M1715.3 569.46H1709.94C1709.74 569.46 1709.57 569.626 1709.57 569.83V621.71C1709.57 621.914 1709.74 622.08 1709.94 622.08H1715.3C1715.5 622.08 1715.67 621.914 1715.67 621.71V569.83C1715.67 569.626 1715.5 569.46 1715.3 569.46Z" fill="#193C6A"/>
<path d="M1832.36 610.15L1832.37 569.82C1832.37 569.732 1832.4 569.648 1832.47 569.586C1832.53 569.524 1832.61 569.49 1832.7 569.49L1838.22 569.43C1838.31 569.43 1838.39 569.464 1838.45 569.526C1838.51 569.588 1838.55 569.672 1838.55 569.76L1838.56 621.77C1838.56 621.857 1838.52 621.941 1838.46 622.003C1838.4 622.065 1838.32 622.1 1838.23 622.1L1833.51 622.08C1833.46 622.081 1833.41 622.07 1833.37 622.049C1833.32 622.029 1833.28 621.998 1833.25 621.96L1800.61 581.02C1800.57 580.966 1800.51 580.926 1800.44 580.907C1800.38 580.887 1800.31 580.888 1800.24 580.91C1800.18 580.932 1800.12 580.974 1800.08 581.029C1800.04 581.085 1800.02 581.151 1800.02 581.22L1800.07 621.72C1800.07 621.807 1800.03 621.891 1799.97 621.953C1799.91 622.015 1799.83 622.05 1799.74 622.05L1794.29 622.06C1794.2 622.06 1794.12 622.025 1794.06 621.963C1793.99 621.901 1793.96 621.817 1793.96 621.73L1793.95 569.8C1793.95 569.712 1793.98 569.628 1794.05 569.566C1794.11 569.504 1794.19 569.47 1794.28 569.47L1798.96 569.44C1799.01 569.44 1799.06 569.452 1799.1 569.475C1799.15 569.497 1799.19 569.53 1799.22 569.57L1831.77 610.35C1831.81 610.404 1831.87 610.443 1831.93 610.463C1832 610.482 1832.07 610.481 1832.14 610.459C1832.2 610.437 1832.26 610.396 1832.3 610.34C1832.34 610.285 1832.36 610.218 1832.36 610.15Z" fill="#193C6A"/>
<path d="M1938.13 569.5H1932.97C1932.69 569.5 1932.47 569.724 1932.47 570V621.6C1932.47 621.876 1932.69 622.1 1932.97 622.1H1938.13C1938.4 622.1 1938.63 621.876 1938.63 621.6V570C1938.63 569.724 1938.4 569.5 1938.13 569.5Z" fill="#193C6A"/>
<path d="M1990.75 610.17L1990.74 569.77C1990.74 569.686 1990.77 569.604 1990.83 569.544C1990.89 569.484 1990.98 569.45 1991.06 569.45L1996.66 569.46C1996.75 569.46 1996.83 569.494 1996.89 569.554C1996.95 569.614 1996.98 569.696 1996.98 569.78L1996.97 621.73C1996.97 621.815 1996.94 621.897 1996.88 621.957C1996.82 622.017 1996.74 622.05 1996.65 622.05L1991.92 622.09C1991.87 622.092 1991.82 622.082 1991.78 622.061C1991.73 622.04 1991.69 622.009 1991.66 621.97L1959.14 581.18C1959.1 581.129 1959.04 581.092 1958.98 581.073C1958.92 581.055 1958.85 581.056 1958.79 581.076C1958.73 581.097 1958.67 581.136 1958.63 581.189C1958.6 581.242 1958.57 581.305 1958.57 581.37V621.77C1958.57 621.855 1958.54 621.937 1958.48 621.997C1958.42 622.057 1958.34 622.09 1958.25 622.09H1952.69C1952.61 622.09 1952.52 622.057 1952.46 621.997C1952.4 621.937 1952.37 621.855 1952.37 621.77V569.76C1952.37 569.676 1952.4 569.594 1952.46 569.534C1952.52 569.474 1952.61 569.44 1952.69 569.44L1957.4 569.45C1957.45 569.45 1957.5 569.461 1957.54 569.482C1957.58 569.503 1957.62 569.533 1957.65 569.57L1990.18 610.36C1990.22 610.412 1990.28 610.449 1990.34 610.468C1990.4 610.486 1990.47 610.485 1990.53 610.464C1990.59 610.444 1990.65 610.404 1990.69 610.352C1990.73 610.299 1990.75 610.236 1990.75 610.17Z" fill="#193C6A"/>
<path d="M2048.96 569.44L2054.89 569.469C2054.95 569.47 2055 569.484 2055.05 569.511C2055.1 569.538 2055.14 569.576 2055.17 569.622C2055.2 569.669 2055.22 569.722 2055.23 569.777C2055.23 569.832 2055.22 569.888 2055.2 569.94L2033.01 621.859C2032.98 621.919 2032.94 621.97 2032.89 622.005C2032.83 622.041 2032.77 622.06 2032.7 622.059L2027.41 622.099C2027.34 622.101 2027.28 622.081 2027.22 622.044C2027.16 622.006 2027.12 621.953 2027.09 621.89L2004.9 569.95C2004.88 569.898 2004.87 569.842 2004.88 569.787C2004.88 569.732 2004.9 569.679 2004.93 569.632C2004.96 569.586 2005 569.548 2005.05 569.521C2005.1 569.494 2005.16 569.48 2005.21 569.479L2011.08 569.44C2011.15 569.438 2011.22 569.458 2011.27 569.495C2011.33 569.533 2011.37 569.586 2011.4 569.65L2029.73 613.099C2029.76 613.159 2029.8 613.21 2029.86 613.245C2029.91 613.281 2029.98 613.3 2030.04 613.3C2030.11 613.3 2030.17 613.281 2030.23 613.245C2030.28 613.21 2030.32 613.159 2030.35 613.099L2048.64 569.65C2048.67 569.586 2048.71 569.533 2048.77 569.495C2048.83 569.458 2048.89 569.438 2048.96 569.44Z" fill="#193C6A"/>
<path d="M2114.5 602.82V621.74C2114.5 621.98 2114.38 622.097 2114.14 622.09L2108.55 622.08C2108.36 622.08 2108.26 621.983 2108.26 621.79L2108.25 569.77C2108.25 569.53 2108.37 569.413 2108.6 569.42C2114.16 569.52 2120.61 569.503 2127.96 569.37C2132.15 569.297 2135.46 569.74 2137.89 570.7C2151.79 576.19 2150.98 596.57 2136.88 601.26C2136.53 601.373 2136.45 601.587 2136.64 601.9L2148.94 621.9C2148.95 621.917 2148.95 621.935 2148.95 621.954C2148.95 621.973 2148.95 621.991 2148.94 622.007C2148.93 622.023 2148.92 622.036 2148.91 622.046C2148.89 622.055 2148.88 622.06 2148.86 622.06C2147.95 622.1 2145.68 622.107 2142.06 622.08C2141.98 622.08 2141.9 622.059 2141.83 622.019C2141.76 621.979 2141.7 621.92 2141.66 621.85L2130.19 602.7C2129.96 602.32 2129.62 602.13 2129.17 602.13L2115.18 602.14C2114.73 602.14 2114.5 602.367 2114.5 602.82ZM2114.47 575.24V596.28C2114.47 596.407 2114.52 596.529 2114.61 596.62C2114.7 596.71 2114.82 596.76 2114.95 596.76H2130.33C2133.33 596.76 2136.21 595.624 2138.33 593.603C2140.46 591.581 2141.65 588.839 2141.65 585.98V585.54C2141.65 582.681 2140.46 579.939 2138.33 577.917C2136.21 575.896 2133.33 574.76 2130.33 574.76H2114.95C2114.82 574.76 2114.7 574.811 2114.61 574.901C2114.52 574.991 2114.47 575.113 2114.47 575.24Z" fill="#193C6A"/>
<path d="M2212.57 569.45H2206.97C2206.81 569.45 2206.68 569.58 2206.68 569.74V621.78C2206.68 621.94 2206.81 622.07 2206.97 622.07H2212.57C2212.73 622.07 2212.86 621.94 2212.86 621.78V569.74C2212.86 569.58 2212.73 569.45 2212.57 569.45Z" fill="#193C6A"/>
<path d="M2296.91 622.1L2291.36 622.05C2291.27 622.05 2291.18 622.013 2291.11 621.948C2291.05 621.882 2291.01 621.793 2291.01 621.7L2291.02 569.81C2291.02 569.717 2291.06 569.628 2291.12 569.563C2291.19 569.497 2291.28 569.46 2291.37 569.46L2296.1 569.45C2296.16 569.449 2296.21 569.46 2296.26 569.483C2296.31 569.505 2296.35 569.539 2296.38 569.58L2328.92 610.35C2328.97 610.406 2329.03 610.446 2329.1 610.465C2329.17 610.484 2329.24 610.481 2329.31 610.457C2329.38 610.433 2329.44 610.389 2329.48 610.331C2329.52 610.272 2329.54 610.202 2329.54 610.13V569.8C2329.54 569.707 2329.58 569.618 2329.64 569.553C2329.71 569.487 2329.8 569.45 2329.89 569.45L2335.32 569.46C2335.41 569.46 2335.5 569.497 2335.57 569.563C2335.63 569.628 2335.67 569.717 2335.67 569.81L2335.66 621.74C2335.66 621.833 2335.62 621.922 2335.56 621.988C2335.49 622.053 2335.4 622.09 2335.31 622.09L2330.66 622.08C2330.61 622.08 2330.56 622.068 2330.51 622.046C2330.47 622.023 2330.42 621.991 2330.39 621.95L2297.88 581.17C2297.84 581.115 2297.77 581.075 2297.71 581.056C2297.64 581.036 2297.56 581.039 2297.49 581.063C2297.43 581.087 2297.37 581.131 2297.33 581.19C2297.28 581.248 2297.26 581.318 2297.26 581.39V621.75C2297.26 621.796 2297.25 621.842 2297.24 621.884C2297.22 621.927 2297.19 621.965 2297.16 621.998C2297.13 622.03 2297.09 622.056 2297.05 622.074C2297 622.091 2296.96 622.1 2296.91 622.1Z" fill="#193C6A"/>
<path d="M1225.78 656.57L1232.17 646.29C1232.21 646.231 1232.27 646.186 1232.34 646.165C1232.4 646.143 1232.48 646.145 1232.54 646.17L1236.61 647.64C1236.66 647.657 1236.7 647.684 1236.73 647.719C1236.76 647.753 1236.78 647.795 1236.8 647.84C1236.81 647.886 1236.81 647.934 1236.81 647.98C1236.8 648.027 1236.78 648.071 1236.75 648.11L1230.25 656.89C1230.22 656.927 1230.19 656.956 1230.14 656.977C1230.1 656.998 1230.06 657.009 1230.01 657.01L1226.04 657.05C1225.99 657.05 1225.93 657.035 1225.88 657.006C1225.83 656.978 1225.79 656.937 1225.77 656.887C1225.74 656.838 1225.73 656.783 1225.73 656.727C1225.73 656.671 1225.75 656.617 1225.78 656.57Z" fill="#193C6A"/>
<path d="M1377.44 694.96C1379.51 705.47 1389.05 712.77 1399.71 712.39C1405.5 712.184 1410.55 709.914 1414.88 705.58C1415.23 705.227 1415.58 705.234 1415.91 705.6L1418.77 708.71C1419.08 709.044 1419.06 709.364 1418.73 709.67C1411.2 716.704 1402.46 719.204 1392.5 717.17C1379.08 714.43 1369.64 701.71 1370.87 688.18C1372.19 673.55 1384.34 663.13 1398.95 663.11C1406.34 663.097 1412.91 665.797 1418.64 671.21C1419.04 671.59 1419.05 671.977 1418.67 672.37L1415.85 675.33C1415.46 675.737 1415.08 675.734 1414.69 675.32C1412.76 673.267 1410.63 671.717 1408.29 670.67C1391.77 663.26 1373.86 676.86 1377.44 694.96Z" fill="#193C6A"/>
<path d="M1609.76 690.293C1609.81 697.568 1606.89 704.565 1601.65 709.746C1596.41 714.927 1589.27 717.867 1581.8 717.919C1574.34 717.971 1567.16 715.131 1561.84 710.024C1556.53 704.917 1553.51 697.961 1553.46 690.686C1553.41 683.411 1556.33 676.414 1561.57 671.233C1566.81 666.052 1573.95 663.112 1581.42 663.06C1588.89 663.008 1596.07 665.848 1601.38 670.955C1606.69 676.062 1609.71 683.018 1609.76 690.293ZM1603.56 690.49C1603.56 684.671 1601.25 679.09 1597.13 674.976C1593.02 670.861 1587.44 668.55 1581.62 668.55C1575.8 668.55 1570.22 670.861 1566.11 674.976C1561.99 679.09 1559.68 684.671 1559.68 690.49C1559.68 696.308 1561.99 701.889 1566.11 706.003C1570.22 710.118 1575.8 712.43 1581.62 712.43C1587.44 712.43 1593.02 710.118 1597.13 706.003C1601.25 701.889 1603.56 696.308 1603.56 690.49Z" fill="#193C6A"/>
<path d="M1807.95 712.35C1814.41 712.87 1821.17 710.39 1825.64 705.52C1825.7 705.458 1825.77 705.408 1825.85 705.373C1825.92 705.338 1826.01 705.32 1826.09 705.319C1826.18 705.318 1826.26 705.335 1826.34 705.368C1826.41 705.4 1826.48 705.449 1826.54 705.51L1829.56 708.7C1829.87 709.027 1829.86 709.34 1829.53 709.64C1824.54 714.28 1819.19 716.93 1813.47 717.59C1804.38 718.65 1796.64 716.237 1790.24 710.35C1782.03 702.81 1779.16 690.66 1783.53 680.26C1791.31 661.73 1815.36 657.29 1829.49 671.37C1829.78 671.663 1829.78 671.96 1829.5 672.26L1826.5 675.43C1826.45 675.483 1826.39 675.526 1826.32 675.555C1826.25 675.584 1826.18 675.6 1826.1 675.601C1826.03 675.602 1825.96 675.588 1825.89 675.561C1825.82 675.533 1825.75 675.492 1825.7 675.44C1820.25 670.1 1813.97 667.863 1806.87 668.73C1797.7 669.86 1790.31 676.63 1788.25 685.73C1785.27 698.83 1794.73 711.29 1807.95 712.35Z" fill="#193C6A"/>
<path d="M832.781 664.62C832.781 664.574 832.79 664.528 832.808 664.486C832.825 664.443 832.851 664.405 832.884 664.372C832.916 664.34 832.955 664.314 832.997 664.296C833.04 664.279 833.085 664.27 833.131 664.27H854.021C860.742 664.27 867.187 666.848 871.939 671.437C876.692 676.026 879.361 682.25 879.361 688.74V692.44C879.361 698.929 876.692 705.153 871.939 709.742C867.187 714.331 860.742 716.909 854.021 716.909H833.131C833.038 716.909 832.949 716.873 832.884 716.807C832.818 716.741 832.781 716.652 832.781 716.56V664.62ZM838.941 670.01L838.861 711.049C838.861 711.126 838.892 711.2 838.946 711.255C839.001 711.309 839.074 711.34 839.151 711.34L853.591 711.37C856.157 711.375 858.698 710.875 861.07 709.9C863.443 708.924 865.599 707.491 867.416 705.683C869.234 703.875 870.676 701.727 871.662 699.362C872.648 696.997 873.157 694.461 873.161 691.9V689.28C873.169 684.11 871.121 679.148 867.466 675.486C863.811 671.823 858.849 669.76 853.671 669.75L839.231 669.719C839.154 669.719 839.081 669.75 839.026 669.804C838.972 669.859 838.941 669.933 838.941 670.01Z" fill="#193C6A"/>
<path d="M896.9 711.31H925.03C925.126 711.31 925.217 711.348 925.285 711.415C925.352 711.483 925.39 711.574 925.39 711.67L925.36 716.53C925.36 716.625 925.322 716.717 925.255 716.784C925.187 716.852 925.096 716.89 925 716.89L890.69 716.88C890.595 716.88 890.503 716.842 890.436 716.774C890.368 716.707 890.33 716.615 890.33 716.52L890.32 664.59C890.32 664.494 890.358 664.403 890.426 664.335C890.493 664.268 890.585 664.23 890.68 664.23L924.75 664.22C924.846 664.22 924.937 664.258 925.005 664.325C925.072 664.393 925.11 664.484 925.11 664.58L925.07 669.4C925.07 669.495 925.032 669.587 924.965 669.654C924.897 669.722 924.806 669.76 924.71 669.76L896.91 669.75C896.863 669.75 896.816 669.759 896.773 669.777C896.729 669.795 896.689 669.822 896.656 669.855C896.622 669.889 896.596 669.928 896.578 669.972C896.56 670.016 896.55 670.062 896.55 670.11L896.54 687.67C896.54 687.765 896.578 687.857 896.646 687.924C896.713 687.992 896.805 688.03 896.9 688.03L920.98 688.02C921.076 688.02 921.167 688.058 921.235 688.125C921.302 688.193 921.34 688.284 921.34 688.38L921.38 693.19C921.38 693.285 921.342 693.377 921.275 693.444C921.207 693.512 921.116 693.55 921.02 693.55H896.91C896.815 693.55 896.723 693.588 896.656 693.655C896.588 693.723 896.55 693.814 896.55 693.91L896.54 710.95C896.54 711.045 896.578 711.137 896.646 711.204C896.713 711.272 896.805 711.31 896.9 711.31Z" fill="#193C6A"/>
<path d="M959.429 711.31H984.769C984.867 711.31 984.961 711.349 985.031 711.419C985.1 711.488 985.139 711.582 985.139 711.68L985.089 716.51C985.089 716.609 985.05 716.703 984.981 716.772C984.911 716.841 984.817 716.88 984.719 716.88H953.329C953.231 716.88 953.137 716.841 953.068 716.772C952.998 716.703 952.959 716.609 952.959 716.51L952.949 664.62C952.949 664.522 952.988 664.428 953.058 664.359C953.127 664.289 953.221 664.25 953.319 664.25L958.699 664.23C958.797 664.23 958.891 664.269 958.961 664.339C959.03 664.408 959.069 664.502 959.069 664.6L959.059 710.94C959.059 711.039 959.098 711.133 959.168 711.202C959.237 711.271 959.331 711.31 959.429 711.31Z" fill="#193C6A"/>
<path d="M1027.89 704.69L1001.31 704.68C1001.22 704.681 1001.14 704.707 1001.07 704.755C1001 704.803 1000.94 704.871 1000.91 704.95L995.958 716.6C995.925 716.679 995.87 716.747 995.799 716.794C995.727 716.842 995.644 716.869 995.558 716.87L989.878 716.91C989.804 716.911 989.731 716.894 989.665 716.859C989.599 716.825 989.544 716.774 989.503 716.713C989.462 716.651 989.437 716.579 989.431 716.506C989.425 716.432 989.438 716.357 989.468 716.29L1011.49 664.49C1011.52 664.411 1011.58 664.343 1011.65 664.295C1011.72 664.247 1011.8 664.221 1011.89 664.22L1017.33 664.23C1017.41 664.231 1017.5 664.257 1017.57 664.305C1017.64 664.353 1017.7 664.421 1017.73 664.5L1039.72 716.34C1039.75 716.408 1039.76 716.482 1039.75 716.555C1039.74 716.629 1039.72 716.699 1039.67 716.76C1039.63 716.82 1039.58 716.869 1039.51 716.903C1039.44 716.936 1039.37 716.952 1039.3 716.95L1033.57 716.85C1033.48 716.849 1033.4 716.822 1033.33 716.774C1033.26 716.727 1033.2 716.659 1033.17 716.58L1028.29 704.96C1028.26 704.881 1028.2 704.813 1028.13 704.765C1028.06 704.717 1027.97 704.691 1027.89 704.69ZM1003.58 698.68C1003.56 698.731 1003.55 698.787 1003.55 698.842C1003.56 698.897 1003.58 698.951 1003.61 698.997C1003.64 699.043 1003.68 699.082 1003.73 699.108C1003.78 699.135 1003.83 699.149 1003.89 699.15H1025.29C1025.34 699.149 1025.4 699.135 1025.45 699.108C1025.5 699.082 1025.54 699.043 1025.57 698.997C1025.6 698.951 1025.62 698.897 1025.62 698.842C1025.63 698.787 1025.62 698.731 1025.6 698.68L1014.9 673.48C1014.87 673.42 1014.83 673.369 1014.77 673.334C1014.72 673.298 1014.65 673.279 1014.59 673.279C1014.52 673.279 1014.46 673.298 1014.4 673.334C1014.35 673.369 1014.31 673.42 1014.28 673.48L1003.58 698.68Z" fill="#193C6A"/>
<path d="M1093.46 696.74C1097.65 703.493 1101.75 710.173 1105.77 716.78C1105.78 716.791 1105.78 716.803 1105.78 716.816C1105.78 716.829 1105.78 716.842 1105.77 716.853C1105.77 716.865 1105.76 716.874 1105.75 716.881C1105.73 716.887 1105.72 716.89 1105.71 716.89C1103.36 716.93 1101.09 716.927 1098.88 716.88C1098.71 716.873 1098.59 716.8 1098.5 716.66L1086.95 697.48C1086.79 697.207 1086.55 697.07 1086.23 697.07H1071.74C1071.62 697.07 1071.51 697.116 1071.43 697.199C1071.34 697.281 1071.3 697.393 1071.3 697.51V716.29C1071.3 716.69 1071.1 716.89 1070.7 716.89L1065.74 716.91C1065.29 716.917 1065.06 716.693 1065.06 716.24V664.53C1065.06 664.448 1065.09 664.369 1065.15 664.311C1065.21 664.253 1065.29 664.22 1065.37 664.22C1071.9 664.26 1078.68 664.247 1085.71 664.18C1089.1 664.147 1091.86 664.507 1093.97 665.26C1100.24 667.49 1104.15 672.55 1104.63 679.32C1105.17 686.95 1101.22 693.83 1093.71 696.06C1093.64 696.079 1093.58 696.114 1093.53 696.162C1093.48 696.209 1093.44 696.268 1093.42 696.334C1093.39 696.4 1093.38 696.471 1093.39 696.541C1093.4 696.612 1093.42 696.68 1093.46 696.74ZM1071.13 670.64L1071.17 690.62C1071.17 690.874 1071.27 691.119 1071.45 691.299C1071.63 691.479 1071.87 691.58 1072.13 691.58L1087.45 691.56C1090.38 691.554 1093.19 690.414 1095.26 688.388C1097.33 686.363 1098.49 683.619 1098.49 680.76V680.42C1098.49 679.004 1098.2 677.603 1097.64 676.296C1097.08 674.989 1096.26 673.802 1095.24 672.803C1094.21 671.804 1092.99 671.012 1091.64 670.473C1090.3 669.933 1088.86 669.657 1087.41 669.66L1072.09 669.68C1071.83 669.68 1071.59 669.781 1071.41 669.961C1071.23 670.141 1071.13 670.385 1071.13 670.64Z" fill="#193C6A"/>
<path d="M1121 670.17L1121.03 687.62C1121.03 687.731 1121.08 687.838 1121.15 687.917C1121.23 687.996 1121.34 688.04 1121.45 688.04L1145.44 688.02C1145.55 688.02 1145.66 688.064 1145.74 688.143C1145.82 688.222 1145.86 688.328 1145.86 688.44L1145.9 693.13C1145.9 693.241 1145.86 693.348 1145.78 693.427C1145.7 693.506 1145.59 693.55 1145.48 693.55L1121.45 693.56C1121.34 693.56 1121.23 693.604 1121.15 693.683C1121.08 693.762 1121.03 693.868 1121.03 693.98L1121.07 710.88C1121.07 710.935 1121.08 710.99 1121.1 711.04C1121.12 711.091 1121.16 711.138 1121.19 711.177C1121.23 711.216 1121.28 711.247 1121.33 711.268C1121.38 711.289 1121.44 711.3 1121.49 711.3L1149.47 711.32C1149.58 711.32 1149.69 711.364 1149.77 711.443C1149.85 711.522 1149.89 711.628 1149.89 711.74V716.45C1149.89 716.561 1149.85 716.668 1149.77 716.747C1149.69 716.826 1149.58 716.87 1149.47 716.87L1115.2 716.89C1115.09 716.89 1114.98 716.845 1114.9 716.767C1114.83 716.688 1114.78 716.581 1114.78 716.47V664.65C1114.78 664.538 1114.83 664.432 1114.9 664.353C1114.98 664.274 1115.09 664.23 1115.2 664.23L1149.16 664.22C1149.27 664.22 1149.38 664.264 1149.46 664.343C1149.54 664.422 1149.58 664.528 1149.58 664.64L1149.54 669.34C1149.54 669.395 1149.53 669.45 1149.51 669.5C1149.49 669.551 1149.46 669.598 1149.42 669.637C1149.38 669.676 1149.33 669.707 1149.28 669.728C1149.23 669.749 1149.18 669.76 1149.12 669.76L1121.42 669.75C1121.31 669.75 1121.2 669.794 1121.12 669.873C1121.05 669.952 1121 670.058 1121 670.17Z" fill="#193C6A"/>
<path d="M1166.11 698.72L1166.13 716.25C1166.13 716.677 1165.92 716.89 1165.49 716.89L1160.5 716.91C1160.06 716.91 1159.84 716.69 1159.84 716.25L1159.82 664.68C1159.82 664.36 1159.98 664.204 1160.31 664.21C1165.8 664.29 1171.73 664.274 1178.1 664.16C1182.19 664.087 1185.4 664.467 1187.72 665.3C1205.19 671.59 1200.94 698.59 1181.21 698.33C1176.34 698.264 1171.44 698.257 1166.51 698.31C1166.24 698.317 1166.11 698.454 1166.11 698.72ZM1165.97 670.38V692.34C1165.97 692.513 1166.04 692.678 1166.16 692.8C1166.28 692.922 1166.45 692.99 1166.62 692.99H1180.96C1184.01 692.99 1186.93 691.777 1189.09 689.616C1191.24 687.456 1192.45 684.526 1192.45 681.47V681.25C1192.45 678.195 1191.24 675.265 1189.09 673.104C1186.93 670.944 1184.01 669.73 1180.96 669.73H1166.62C1166.45 669.73 1166.28 669.799 1166.16 669.921C1166.04 670.043 1165.97 670.208 1165.97 670.38Z" fill="#193C6A"/>
<path d="M1234.01 711.35C1239.99 709.09 1243.54 703.17 1243.54 696.89C1243.54 685.85 1243.54 675.04 1243.54 664.46C1243.54 664.313 1243.61 664.24 1243.76 664.24L1249.49 664.22C1249.69 664.22 1249.79 664.323 1249.79 664.53C1249.71 672.916 1249.72 681.913 1249.84 691.52C1249.9 697.08 1249.51 701.156 1248.67 703.75C1242.54 722.44 1214.65 722.8 1207.84 704.49C1206.88 701.916 1206.42 698.49 1206.47 694.21C1206.58 683.256 1206.59 673.363 1206.51 664.53C1206.5 664.33 1206.6 664.23 1206.8 664.23H1212.43C1212.6 664.23 1212.69 664.316 1212.69 664.49C1212.63 675.316 1212.64 686.153 1212.72 697C1212.79 708.31 1223.31 715.4 1234.01 711.35Z" fill="#193C6A"/>
<path d="M1293.21 689.29C1306.53 694.05 1305.17 712.4 1291.89 716.18C1290.01 716.714 1287.64 716.964 1284.77 716.93C1277.12 716.83 1269.82 716.83 1262.88 716.93C1262.82 716.932 1262.77 716.922 1262.71 716.901C1262.66 716.881 1262.61 716.85 1262.57 716.811C1262.53 716.772 1262.5 716.725 1262.48 716.673C1262.45 716.622 1262.44 716.566 1262.44 716.51V664.79C1262.44 664.437 1262.62 664.257 1262.97 664.25C1272.46 664.157 1280.1 664.187 1285.9 664.34C1294.19 664.55 1300.41 671.23 1299.31 679.65C1298.79 683.637 1296.74 686.66 1293.16 688.72C1292.77 688.947 1292.79 689.137 1293.21 689.29ZM1268.51 669.76L1268.49 686.92C1268.49 687.001 1268.52 687.078 1268.58 687.136C1268.63 687.194 1268.71 687.228 1268.79 687.23L1283.87 687.26C1285.08 687.263 1286.29 687.039 1287.41 686.6C1288.53 686.162 1289.55 685.518 1290.41 684.705C1291.27 683.893 1291.95 682.927 1292.41 681.864C1292.88 680.801 1293.12 679.662 1293.12 678.51V678.25C1293.12 675.929 1292.16 673.701 1290.43 672.057C1288.7 670.412 1286.36 669.486 1283.91 669.48L1268.83 669.45C1268.79 669.449 1268.75 669.456 1268.71 669.471C1268.67 669.486 1268.64 669.508 1268.61 669.537C1268.58 669.566 1268.55 669.601 1268.54 669.639C1268.52 669.678 1268.51 669.719 1268.51 669.76ZM1268.45 692.99L1268.39 710.73C1268.39 710.958 1268.48 711.177 1268.64 711.338C1268.8 711.5 1269.02 711.59 1269.25 711.59L1285.81 711.65C1288.53 711.659 1291.13 710.667 1293.06 708.893C1294.98 707.12 1296.07 704.709 1296.08 702.19V701.73C1296.09 700.482 1295.83 699.245 1295.32 698.09C1294.81 696.935 1294.05 695.884 1293.11 694.998C1292.16 694.112 1291.03 693.408 1289.79 692.927C1288.55 692.445 1287.22 692.195 1285.87 692.19L1269.31 692.13C1269.08 692.13 1268.86 692.221 1268.7 692.382C1268.54 692.543 1268.45 692.762 1268.45 692.99Z" fill="#193C6A"/>
<path d="M1319.13 711.3L1344.5 711.32C1344.6 711.32 1344.69 711.359 1344.76 711.428C1344.83 711.497 1344.87 711.592 1344.87 711.69V716.51C1344.87 716.608 1344.83 716.702 1344.76 716.771C1344.69 716.841 1344.6 716.88 1344.5 716.88H1312.93C1312.88 716.88 1312.83 716.87 1312.79 716.852C1312.74 716.833 1312.7 716.806 1312.67 716.771C1312.63 716.737 1312.61 716.696 1312.59 716.651C1312.57 716.606 1312.56 716.558 1312.56 716.51V664.59C1312.56 664.541 1312.57 664.493 1312.59 664.448C1312.61 664.403 1312.63 664.362 1312.67 664.328C1312.7 664.294 1312.74 664.267 1312.79 664.248C1312.83 664.229 1312.88 664.22 1312.93 664.22L1318.41 664.26C1318.51 664.26 1318.6 664.299 1318.67 664.368C1318.74 664.437 1318.78 664.532 1318.78 664.63L1318.76 710.93C1318.76 711.028 1318.8 711.122 1318.87 711.191C1318.94 711.261 1319.03 711.3 1319.13 711.3Z" fill="#193C6A"/>
<path d="M1359.38 664.24H1353.98C1353.76 664.24 1353.58 664.419 1353.58 664.64V716.5C1353.58 716.721 1353.76 716.9 1353.98 716.9H1359.38C1359.6 716.9 1359.78 716.721 1359.78 716.5V664.64C1359.78 664.419 1359.6 664.24 1359.38 664.24Z" fill="#193C6A"/>
<path d="M1434.46 704.98L1429.56 716.56C1429.52 716.648 1429.46 716.724 1429.38 716.777C1429.3 716.831 1429.21 716.859 1429.11 716.86L1423.53 716.92C1423.45 716.921 1423.37 716.902 1423.3 716.865C1423.22 716.827 1423.16 716.772 1423.12 716.704C1423.07 716.637 1423.04 716.559 1423.03 716.478C1423.03 716.397 1423.04 716.315 1423.07 716.24L1445.04 664.52C1445.08 664.431 1445.14 664.355 1445.22 664.302C1445.3 664.249 1445.39 664.22 1445.49 664.22L1450.87 664.23C1450.97 664.23 1451.06 664.259 1451.14 664.312C1451.22 664.365 1451.28 664.441 1451.32 664.53L1473.25 716.22C1473.28 716.294 1473.29 716.375 1473.29 716.455C1473.28 716.536 1473.25 716.613 1473.21 716.68C1473.16 716.747 1473.1 716.803 1473.03 716.841C1472.96 716.879 1472.88 716.9 1472.8 716.9L1467.21 716.89C1467.11 716.889 1467.02 716.861 1466.94 716.807C1466.86 716.754 1466.8 716.678 1466.76 716.59L1461.88 704.99C1461.84 704.9 1461.78 704.823 1461.7 704.769C1461.61 704.716 1461.52 704.688 1461.42 704.69L1434.91 704.68C1434.81 704.68 1434.72 704.709 1434.64 704.762C1434.56 704.815 1434.5 704.891 1434.46 704.98ZM1437.15 698.71C1437.13 698.758 1437.12 698.81 1437.13 698.861C1437.13 698.913 1437.15 698.963 1437.18 699.006C1437.21 699.049 1437.25 699.085 1437.29 699.11C1437.34 699.135 1437.39 699.149 1437.44 699.15H1458.9C1458.95 699.149 1459 699.135 1459.05 699.11C1459.09 699.085 1459.13 699.049 1459.16 699.006C1459.19 698.963 1459.21 698.913 1459.21 698.861C1459.22 698.81 1459.21 698.758 1459.19 698.71L1448.46 673.44C1448.43 673.385 1448.39 673.338 1448.34 673.305C1448.29 673.272 1448.23 673.255 1448.17 673.255C1448.11 673.255 1448.05 673.272 1448 673.305C1447.95 673.338 1447.91 673.385 1447.88 673.44L1437.15 698.71Z" fill="#193C6A"/>
<path d="M1498.75 664.48C1498.75 664.411 1498.78 664.345 1498.82 664.296C1498.87 664.247 1498.94 664.22 1499.01 664.22L1519.92 664.26C1526.67 664.273 1533.13 666.869 1537.9 671.477C1542.66 676.084 1545.33 682.326 1545.32 688.83V692.45C1545.31 695.672 1544.65 698.862 1543.37 701.837C1542.08 704.811 1540.2 707.513 1537.83 709.787C1535.47 712.062 1532.66 713.864 1529.56 715.091C1526.47 716.318 1523.16 716.947 1519.82 716.94L1498.91 716.9C1498.84 716.9 1498.77 716.872 1498.72 716.824C1498.68 716.775 1498.65 716.709 1498.65 716.64L1498.75 664.48ZM1504.92 670.06L1504.84 710.92C1504.84 711.018 1504.88 711.112 1504.95 711.181C1505.02 711.251 1505.11 711.29 1505.21 711.29L1519.58 711.32C1522.12 711.325 1524.64 710.841 1526.99 709.896C1529.33 708.95 1531.47 707.561 1533.27 705.809C1535.07 704.057 1536.5 701.975 1537.47 699.683C1538.45 697.39 1538.95 694.933 1538.96 692.45V688.65C1538.97 683.639 1536.94 678.83 1533.32 675.28C1529.7 671.731 1524.79 669.73 1519.66 669.72L1505.29 669.69C1505.19 669.69 1505.1 669.729 1505.03 669.798C1504.96 669.868 1504.92 669.962 1504.92 670.06Z" fill="#193C6A"/>
<path d="M1626.97 675.46L1626.99 716.51C1626.99 716.613 1626.95 716.712 1626.88 716.786C1626.81 716.859 1626.71 716.9 1626.61 716.9L1621.1 716.91C1620.87 716.91 1620.75 716.793 1620.75 716.56V664.74C1620.75 664.393 1620.92 664.22 1621.26 664.22L1625.54 664.23C1625.89 664.23 1626.18 664.37 1626.39 664.65L1646.05 690.55C1646.34 690.93 1646.62 690.93 1646.91 690.55L1666.63 664.56C1666.8 664.34 1667.02 664.23 1667.29 664.23H1671.75C1672.1 664.23 1672.28 664.403 1672.28 664.75L1672.27 716.69C1672.27 716.836 1672.2 716.91 1672.06 716.91L1666.33 716.87C1666.14 716.87 1666.05 716.776 1666.05 716.59L1666.08 675.51C1666.08 674.963 1665.91 674.906 1665.58 675.34L1647.86 698.67C1647.69 698.887 1647.48 699.062 1647.24 699.183C1646.99 699.304 1646.72 699.366 1646.45 699.365C1646.17 699.364 1645.91 699.3 1645.66 699.177C1645.42 699.055 1645.2 698.878 1645.04 698.66L1627.47 675.29C1627.14 674.843 1626.97 674.9 1626.97 675.46Z" fill="#193C6A"/>
<path d="M1691.9 664.23H1686.36C1686.16 664.23 1686 664.392 1686 664.591V716.531C1686 716.729 1686.16 716.891 1686.36 716.891H1691.9C1692.1 716.891 1692.26 716.729 1692.26 716.531V664.591C1692.26 664.392 1692.1 664.23 1691.9 664.23Z" fill="#193C6A"/>
<path d="M1712.23 676.3L1712.22 716.55C1712.22 716.643 1712.18 716.732 1712.12 716.797C1712.05 716.863 1711.96 716.9 1711.87 716.9L1706.32 716.89C1706.23 716.89 1706.14 716.853 1706.07 716.787C1706.01 716.722 1705.97 716.633 1705.97 716.54V664.59C1705.97 664.497 1706.01 664.408 1706.07 664.342C1706.14 664.277 1706.23 664.24 1706.32 664.24L1710.97 664.22C1711.02 664.219 1711.08 664.23 1711.12 664.252C1711.17 664.275 1711.22 664.308 1711.25 664.35L1743.88 705.27C1743.92 705.325 1743.99 705.365 1744.06 705.384C1744.12 705.404 1744.2 705.401 1744.27 705.377C1744.33 705.353 1744.39 705.309 1744.43 705.25C1744.48 705.192 1744.5 705.122 1744.5 705.05V664.58C1744.5 664.487 1744.54 664.398 1744.6 664.332C1744.67 664.267 1744.76 664.23 1744.85 664.23H1750.22C1750.31 664.23 1750.4 664.267 1750.47 664.332C1750.53 664.398 1750.57 664.487 1750.57 664.58L1750.56 716.57C1750.56 716.663 1750.52 716.752 1750.46 716.817C1750.39 716.883 1750.3 716.92 1750.21 716.92L1745.54 716.87C1745.49 716.87 1745.44 716.858 1745.39 716.835C1745.34 716.813 1745.3 716.78 1745.27 716.74L1712.85 676.08C1712.8 676.024 1712.74 675.984 1712.67 675.965C1712.6 675.946 1712.53 675.949 1712.46 675.973C1712.39 675.997 1712.34 676.041 1712.29 676.1C1712.25 676.158 1712.23 676.228 1712.23 676.3Z" fill="#193C6A"/>
<path d="M1770.15 664.22H1764.69C1764.48 664.22 1764.31 664.39 1764.31 664.6V716.54C1764.31 716.75 1764.48 716.92 1764.69 716.92H1770.15C1770.36 716.92 1770.53 716.75 1770.53 716.54V664.6C1770.53 664.39 1770.36 664.22 1770.15 664.22Z" fill="#193C6A"/>
<path d="M1845.21 704.95L1840.31 716.6C1840.28 716.679 1840.22 716.747 1840.15 716.794C1840.08 716.842 1840 716.869 1839.91 716.87L1834.22 716.91C1834.15 716.911 1834.07 716.894 1834.01 716.859C1833.94 716.825 1833.89 716.774 1833.85 716.713C1833.81 716.651 1833.78 716.579 1833.77 716.506C1833.77 716.432 1833.78 716.357 1833.81 716.29L1855.82 664.49C1855.86 664.411 1855.91 664.343 1855.98 664.295C1856.05 664.247 1856.14 664.221 1856.22 664.22L1861.66 664.24C1861.75 664.241 1861.83 664.267 1861.9 664.315C1861.97 664.363 1862.03 664.431 1862.06 664.51L1884.04 716.31C1884.07 716.377 1884.08 716.45 1884.07 716.523C1884.07 716.595 1884.04 716.665 1884 716.725C1883.96 716.786 1883.91 716.835 1883.84 716.869C1883.78 716.903 1883.7 716.92 1883.63 716.92L1877.94 716.87C1877.86 716.869 1877.77 716.842 1877.7 716.794C1877.63 716.747 1877.58 716.679 1877.54 716.6L1872.59 704.96C1872.56 704.881 1872.5 704.813 1872.43 704.765C1872.36 704.717 1872.28 704.691 1872.19 704.69L1845.61 704.68C1845.53 704.681 1845.44 704.707 1845.37 704.755C1845.3 704.803 1845.25 704.871 1845.21 704.95ZM1847.9 698.69C1847.88 698.74 1847.87 698.794 1847.88 698.848C1847.88 698.902 1847.9 698.955 1847.93 699C1847.96 699.046 1848 699.083 1848.05 699.109C1848.09 699.135 1848.15 699.149 1848.2 699.15H1869.64C1869.7 699.149 1869.75 699.135 1869.8 699.109C1869.84 699.083 1869.89 699.046 1869.92 699C1869.94 698.955 1869.96 698.902 1869.97 698.848C1869.97 698.794 1869.96 698.74 1869.94 698.69L1859.22 673.46C1859.2 673.402 1859.15 673.354 1859.1 673.32C1859.05 673.285 1858.99 673.267 1858.92 673.267C1858.86 673.267 1858.8 673.285 1858.74 673.32C1858.69 673.354 1858.65 673.402 1858.62 673.46L1847.9 698.69Z" fill="#193C6A"/>
<path d="M1930.31 705.23L1930.32 664.47C1930.32 664.316 1930.39 664.24 1930.54 664.24L1936.25 664.22C1936.33 664.22 1936.4 664.249 1936.45 664.302C1936.5 664.354 1936.53 664.425 1936.53 664.5V716.44C1936.53 716.76 1936.37 716.916 1936.06 716.91L1931.77 716.88C1931.62 716.877 1931.48 716.841 1931.35 716.776C1931.21 716.71 1931.1 716.616 1931 716.5L1898.6 675.87C1898.31 675.51 1898.16 675.56 1898.16 676.02L1898.21 716.46C1898.21 716.572 1898.17 716.68 1898.09 716.76C1898.01 716.841 1897.9 716.887 1897.79 716.89L1892.28 716.9C1892.19 716.9 1892.1 716.864 1892.04 716.8C1891.98 716.736 1891.94 716.65 1891.94 716.56V665.02C1891.94 664.5 1892.2 664.236 1892.72 664.23H1896.31C1896.81 664.223 1897.22 664.416 1897.53 664.81L1929.9 705.38C1929.93 705.418 1929.97 705.445 1930.02 705.458C1930.07 705.471 1930.12 705.469 1930.16 705.453C1930.21 705.436 1930.25 705.406 1930.27 705.366C1930.3 705.326 1930.31 705.278 1930.31 705.23Z" fill="#193C6A"/>
<path d="M1982.75 704.69L1956.2 704.68C1956.11 704.682 1956.03 704.708 1955.96 704.756C1955.89 704.804 1955.83 704.871 1955.8 704.951L1950.86 716.581C1950.83 716.658 1950.77 716.723 1950.7 716.769C1950.63 716.816 1950.55 716.84 1950.46 716.841L1944.76 716.92C1944.69 716.921 1944.62 716.904 1944.55 716.87C1944.49 716.836 1944.43 716.786 1944.39 716.726C1944.35 716.665 1944.33 716.596 1944.32 716.523C1944.31 716.451 1944.32 716.378 1944.35 716.31L1966.37 664.5C1966.4 664.421 1966.46 664.354 1966.53 664.306C1966.6 664.258 1966.68 664.232 1966.77 664.23H1972.21C1972.3 664.232 1972.38 664.258 1972.45 664.306C1972.52 664.354 1972.58 664.421 1972.61 664.5L1994.59 716.331C1994.62 716.398 1994.63 716.473 1994.62 716.546C1994.62 716.619 1994.59 716.69 1994.55 716.75C1994.51 716.811 1994.45 716.86 1994.38 716.893C1994.32 716.927 1994.24 716.943 1994.17 716.94L1988.46 716.85C1988.38 716.85 1988.29 716.826 1988.22 716.779C1988.15 716.733 1988.1 716.668 1988.06 716.591L1983.15 704.961C1983.12 704.881 1983.06 704.814 1982.99 704.766C1982.92 704.718 1982.84 704.692 1982.75 704.69ZM1958.43 698.711C1958.41 698.759 1958.4 698.812 1958.41 698.865C1958.41 698.917 1958.43 698.967 1958.46 699.011C1958.49 699.054 1958.53 699.09 1958.58 699.114C1958.63 699.139 1958.68 699.151 1958.73 699.151H1980.21C1980.26 699.151 1980.32 699.139 1980.36 699.114C1980.41 699.09 1980.45 699.054 1980.48 699.011C1980.51 698.967 1980.53 698.917 1980.53 698.865C1980.54 698.812 1980.53 698.759 1980.51 698.711L1969.76 673.47C1969.73 673.415 1969.69 673.369 1969.64 673.336C1969.59 673.303 1969.53 673.286 1969.47 673.286C1969.41 673.286 1969.35 673.303 1969.3 673.336C1969.25 673.369 1969.21 673.415 1969.18 673.47L1958.43 698.711Z" fill="#193C6A"/>
<path d="M2005.34 717.78C2007.6 717.78 2009.44 715.944 2009.44 713.68C2009.44 711.416 2007.6 709.58 2005.34 709.58C2003.07 709.58 2001.24 711.416 2001.24 713.68C2001.24 715.944 2003.07 717.78 2005.34 717.78Z" fill="#193C6A"/>
</g>
<defs>
<clipPath id="clip0_885_610">
<rect width="2343" height="893" fill="white"/>
</clipPath>
</defs>
</svg>
