<svg width="auto" viewBox="0 0 2343 893" fill="none" xmlns="http://www.w3.org/2000/svg">
<path d="M350.797 142.384C383.635 115.138 421.643 94.2429 463.302 84.2136C464.533 83.9158 465.75 83.9294 466.953 84.2542C477.023 86.9341 486.541 89.8306 495.506 92.9436C516.628 100.285 535.352 110.801 553.401 123.632C554.29 124.261 554.19 124.556 553.1 124.518C520.569 123.37 489.457 126.353 459.766 133.467C418.952 143.239 382.318 160.821 349.862 186.212C298 226.776 260.211 284.077 239.91 347.087C234.81 362.923 231.129 378.778 228.869 394.652C227.725 402.675 227.308 410.493 227.617 418.105C227.639 418.527 227.438 418.752 227.015 418.779L223.755 418.998C223.43 419.02 223.262 418.868 223.251 418.543C221.842 382.806 226.362 347.74 236.812 313.345C256.991 246.973 297.577 186.561 350.797 142.384Z" fill="#00A9E0"/>
<path d="M252.78 204.95C227.269 240.511 210.322 280.282 201.94 324.264C176.956 455.355 235.526 599.476 353.677 666.059C354.003 666.249 354.166 666.531 354.166 666.905V808.511C354.166 809.011 353.957 809.127 353.539 808.861C345.124 803.582 337.021 798.205 329.232 792.73C283.314 760.479 241.658 724.031 204.264 683.386C130.022 602.683 74.4688 502.21 72.0716 390.831C71.0387 343.04 81.1877 298.169 102.518 256.216C154.215 154.539 263.127 93.3436 377.177 102.996C378.226 103.083 378.272 103.349 377.316 103.794C327.796 126.778 284.385 160.895 252.78 204.95Z" fill="#003DA5"/>
<path d="M655.997 385.196C655.68 446.569 635.601 505.162 598.443 554.167C562.56 601.483 512.596 635.585 456.497 652.877C430.571 660.872 402.955 664.913 373.648 665C373.291 665 372.958 664.908 372.649 664.724C369.87 663.077 367.373 661.354 365.157 659.556C317.584 620.927 285.537 572.092 269.015 513.052C268.998 512.987 268.995 512.919 269.008 512.853C269.021 512.787 269.049 512.725 269.09 512.672C269.131 512.618 269.184 512.575 269.244 512.545C269.304 512.515 269.37 512.5 269.438 512.5C303.045 512.451 336.574 512.462 370.024 512.532C376.102 512.543 381.5 512.342 386.219 511.931C452.572 506.162 503.812 450.087 503.512 383.328C503.219 317.592 453.174 262.557 387.811 255.894C383.293 255.434 377.944 255.22 371.763 255.253C358.118 255.323 344.031 255.334 329.502 255.285C329.446 255.284 329.392 255.266 329.345 255.235C329.299 255.204 329.262 255.16 329.24 255.109C329.218 255.058 329.211 255.001 329.22 254.946C329.229 254.891 329.253 254.839 329.291 254.798C362.774 217.149 402.895 190.232 449.655 174.046C479.5 163.71 511.231 158.705 542.612 159.013C543.241 159.024 543.854 159.228 544.367 159.598C564.459 174.203 582.243 191.87 597.72 212.601C634.87 262.379 656.313 323.385 655.997 385.196Z" fill="#C8102E"/>
<path d="M1120.24 194.276C1138.46 190.776 1157.79 191.206 1175.45 196.306C1208.22 205.766 1231.98 233.456 1237.44 267.006C1240.57 286.186 1239.38 304.22 1233.89 321.106C1223.74 352.316 1196.6 375.446 1164.51 381.306C1147.55 384.4 1130.95 383.996 1114.72 380.096C1088.17 373.716 1066.99 355.506 1055.78 330.706C1046.36 309.856 1045.12 283.526 1050.22 261.386C1058.24 226.516 1085.32 200.986 1120.24 194.276ZM1091.36 280.276C1090.54 289.896 1091.32 298.766 1093.69 306.886C1099.07 325.256 1113.36 339.126 1132.3 342.736C1154.1 346.896 1174.44 339.186 1186.68 320.526C1195.39 307.236 1197.2 288.426 1193.96 273.096C1189.01 249.646 1170.47 232.576 1146.3 231.396C1116.08 229.916 1093.87 250.796 1091.36 280.276Z" fill="#00A9E0"/>
<path d="M797.992 322.116L797.972 379.786C797.972 379.874 797.954 379.961 797.921 380.043C797.887 380.124 797.838 380.198 797.775 380.26C797.713 380.322 797.639 380.372 797.558 380.405C797.477 380.439 797.39 380.456 797.302 380.456L755.572 380.466C755.198 380.466 755.012 380.28 755.012 379.906V195.376C755.012 195.023 755.185 194.846 755.532 194.846C776.438 194.78 797.472 194.79 818.632 194.876C830.692 194.923 842.225 196.38 853.232 199.246C877.402 205.536 889.772 222.796 892.302 246.656C894.292 265.346 891.932 286.746 878.672 300.626C870.045 309.653 859.475 315.543 846.962 318.296C831.162 321.776 814.422 322.216 798.512 321.606C798.444 321.604 798.377 321.615 798.314 321.639C798.251 321.664 798.194 321.701 798.145 321.748C798.097 321.796 798.058 321.853 798.032 321.916C798.005 321.98 797.992 322.048 797.992 322.116ZM822.602 230.686C815.168 229.96 807.138 229.743 798.512 230.036C798.158 230.043 797.982 230.223 797.982 230.576L797.992 285.886C797.992 286.007 798.039 286.122 798.123 286.208C798.207 286.294 798.321 286.344 798.442 286.346C812.532 286.546 840.702 287.966 846.902 270.786C849.968 262.286 849.915 253.496 846.742 244.416C843.412 234.896 831.932 231.606 822.602 230.686Z" fill="#00A9E0"/>
<path d="M946.919 318.615C946.842 318.615 946.768 318.647 946.714 318.703C946.659 318.76 946.629 318.836 946.629 318.915V380.095C946.629 380.196 946.588 380.293 946.515 380.364C946.441 380.435 946.342 380.475 946.239 380.475L904.029 380.435C903.947 380.435 903.868 380.402 903.81 380.342C903.751 380.282 903.719 380.2 903.719 380.115L903.739 195.375C903.739 195.029 903.909 194.855 904.249 194.855C929.269 194.749 951.029 194.779 969.529 194.945C984.779 195.085 1001.48 198.625 1014.92 205.895C1029.8 213.945 1036.27 228.905 1037.86 245.215C1040.47 272.025 1034.92 301.775 1006.27 312.135C1006.21 312.157 1006.16 312.191 1006.12 312.236C1006.07 312.28 1006.04 312.334 1006.02 312.392C1006 312.451 1006 312.513 1006 312.574C1006.01 312.635 1006.03 312.694 1006.07 312.745L1051.77 380.025C1051.8 380.067 1051.82 380.117 1051.82 380.168C1051.82 380.219 1051.81 380.27 1051.79 380.315C1051.76 380.36 1051.73 380.398 1051.68 380.425C1051.64 380.451 1051.59 380.465 1051.54 380.465H1001.05C1000.58 380.465 1000.23 380.269 999.979 379.875L961.559 319.225C961.299 318.819 960.932 318.615 960.459 318.615H946.919ZM989.299 274.665C996.079 266.645 995.249 251.945 991.799 242.495C989.979 237.502 986.242 234.252 980.589 232.745C969.339 229.735 958.159 230.295 946.959 230.235C946.572 230.235 946.379 230.429 946.379 230.815L946.369 282.795C946.369 283.102 946.522 283.262 946.829 283.275C954.602 283.562 962.295 283.265 969.909 282.385C976.379 281.645 985.049 279.685 989.299 274.665Z" fill="#00A9E0"/>
<path d="M1158.5 515.036C1158.28 514.663 1158.14 514.686 1158.07 515.106L1143.44 596.276C1143.37 596.629 1143.16 596.806 1142.8 596.806L1106.31 596.816C1106.26 596.816 1106.21 596.804 1106.16 596.781C1106.11 596.758 1106.07 596.725 1106.04 596.684C1106.01 596.643 1105.98 596.595 1105.97 596.543C1105.96 596.492 1105.96 596.438 1105.97 596.386L1141.22 419.296C1141.28 418.969 1141.48 418.799 1141.81 418.786L1143.67 418.706C1143.97 418.693 1144.19 418.819 1144.35 419.086L1207.57 530.806C1207.6 530.863 1207.65 530.909 1207.7 530.942C1207.76 530.974 1207.82 530.99 1207.89 530.989C1207.96 530.988 1208.02 530.97 1208.08 530.936C1208.14 530.902 1208.18 530.854 1208.22 530.796L1271.4 419.146C1271.54 418.899 1271.75 418.773 1272.04 418.766L1273.9 418.716C1274.26 418.709 1274.47 418.883 1274.54 419.236L1309.81 596.376C1309.87 596.669 1309.75 596.816 1309.45 596.816L1273.88 596.806C1273.46 596.806 1273.21 596.599 1273.13 596.186L1257.75 515.586C1257.64 515.026 1257.45 514.993 1257.17 515.486L1210.14 598.456C1209.94 598.806 1209.65 599.097 1209.3 599.3C1208.96 599.503 1208.56 599.609 1208.16 599.609C1207.75 599.609 1207.36 599.503 1207.01 599.3C1206.66 599.097 1206.37 598.806 1206.17 598.456L1158.5 515.036Z" fill="#193C6A"/>
<path d="M2060.62 521.205L2060.67 421.885C2060.67 421.625 2060.8 421.495 2061.07 421.495L2096.45 421.515C2096.59 421.515 2096.72 421.57 2096.82 421.668C2096.91 421.765 2096.97 421.897 2096.97 422.035V598.845C2096.97 599.205 2096.79 599.389 2096.44 599.395C2095.48 599.415 2094.84 599.409 2094.51 599.375C2094.2 599.343 2093.91 599.225 2093.66 599.035C2093.52 598.935 2056.73 564.889 1983.29 496.895C1982.85 496.489 1982.63 496.585 1982.63 497.185V596.455C1982.63 596.551 1982.59 596.642 1982.52 596.71C1982.45 596.777 1982.36 596.815 1982.26 596.815H1946.77C1946.71 596.815 1946.65 596.803 1946.59 596.78C1946.54 596.757 1946.49 596.723 1946.44 596.681C1946.4 596.638 1946.37 596.587 1946.34 596.531C1946.32 596.476 1946.31 596.416 1946.31 596.355V419.425C1946.31 418.939 1946.55 418.702 1947.04 418.715L1948.52 418.775C1948.95 418.789 1949.32 418.942 1949.63 419.235L2060.31 521.345C2060.34 521.368 2060.37 521.382 2060.4 521.387C2060.44 521.391 2060.47 521.386 2060.51 521.371C2060.54 521.357 2060.57 521.334 2060.59 521.304C2060.61 521.275 2060.62 521.241 2060.62 521.205Z" fill="#193C6A"/>
<path d="M2157.68 569.996L2146.39 596.256C2146.23 596.622 2145.95 596.806 2145.55 596.806L2108.18 596.816C2107.78 596.816 2107.66 596.632 2107.83 596.266L2187.99 419.836C2188.16 419.469 2188.42 419.158 2188.76 418.94C2189.1 418.722 2189.49 418.605 2189.9 418.605C2190.3 418.605 2190.69 418.722 2191.03 418.94C2191.37 419.158 2191.64 419.469 2191.8 419.836L2271.7 596.256C2271.87 596.629 2271.75 596.816 2271.34 596.816H2232.53C2232.38 596.816 2232.23 596.771 2232.11 596.688C2231.98 596.604 2231.88 596.485 2231.82 596.346L2220.84 570.196C2220.73 569.922 2220.52 569.786 2220.22 569.786H2157.99C2157.92 569.785 2157.86 569.805 2157.8 569.843C2157.75 569.88 2157.71 569.933 2157.68 569.996ZM2169.12 540.206C2169.1 540.256 2169.09 540.312 2169.1 540.367C2169.1 540.422 2169.12 540.475 2169.15 540.52C2169.18 540.566 2169.22 540.603 2169.27 540.629C2169.32 540.654 2169.38 540.667 2169.43 540.666H2209.27C2209.33 540.667 2209.38 540.654 2209.43 540.629C2209.48 540.603 2209.52 540.566 2209.55 540.52C2209.58 540.475 2209.6 540.422 2209.61 540.367C2209.61 540.312 2209.6 540.256 2209.58 540.206L2189.65 493.006C2189.62 492.948 2189.58 492.9 2189.53 492.866C2189.48 492.831 2189.41 492.813 2189.35 492.813C2189.29 492.813 2189.23 492.831 2189.17 492.866C2189.12 492.9 2189.08 492.948 2189.05 493.006L2169.12 540.206Z" fill="#193C6A"/>
<path d="M991.729 598.436C961.769 594.636 937.789 577.076 925.259 549.366C919.289 536.186 917.179 520.726 917.559 505.796C918.089 484.826 924.079 465.206 937.369 449.396C950.902 433.283 968.518 423.54 990.218 420.166C1018.62 415.756 1048.72 420.756 1070.28 440.226C1093.77 461.416 1101.63 491.426 1097.93 522.276C1093.35 560.526 1066.11 590.536 1028.13 597.596C1016.5 599.763 1004.37 600.043 991.729 598.436ZM1040.23 554.656C1055.79 542.226 1061.48 524.246 1060.37 504.546C1059.63 491.326 1055.37 479.156 1046.6 469.556C1036.36 458.343 1023.62 452.72 1008.37 452.686C992.282 452.646 979.185 458.396 969.078 469.936C955.318 485.656 953.098 507.926 958.208 527.666C959.875 534.106 962.828 540.07 967.068 545.556C977.548 559.136 992.169 565.366 1009.1 565.206C1020.65 565.096 1031.24 561.836 1040.23 554.656Z" fill="#193C6A"/>
<path d="M1503.3 521.127L1503.29 421.787C1503.29 421.721 1503.32 421.657 1503.36 421.61C1503.41 421.563 1503.48 421.537 1503.55 421.537L1539.25 421.517C1539.34 421.517 1539.42 421.551 1539.48 421.611C1539.54 421.671 1539.58 421.752 1539.58 421.837V598.837C1539.58 599.224 1539.38 599.414 1539 599.407L1537.03 599.367C1536.8 599.361 1536.58 599.272 1536.41 599.117L1425.68 496.687C1425.64 496.653 1425.6 496.629 1425.55 496.62C1425.51 496.611 1425.46 496.617 1425.41 496.636C1425.37 496.656 1425.33 496.688 1425.3 496.729C1425.28 496.771 1425.27 496.818 1425.27 496.867V596.317C1425.27 596.65 1425.1 596.817 1424.77 596.817H1389.23C1389.07 596.817 1388.99 596.734 1388.99 596.567V419.317C1388.99 419.163 1389.05 419.016 1389.16 418.907C1389.27 418.798 1389.41 418.737 1389.57 418.737C1390.67 418.757 1391.53 418.537 1392.43 419.367C1429.26 453.354 1466.09 487.33 1502.91 521.297C1502.94 521.329 1502.98 521.35 1503.03 521.358C1503.07 521.366 1503.12 521.361 1503.16 521.343C1503.2 521.324 1503.24 521.294 1503.26 521.256C1503.29 521.217 1503.3 521.172 1503.3 521.127Z" fill="#193C6A"/>
<path d="M1761.88 466.907C1739.39 451.387 1703.2 445.867 1680.44 463.687C1663.41 477.017 1657.58 497.017 1660.2 518.247C1663.63 546.077 1684.63 563.687 1712.22 565.107C1726.88 565.867 1740.95 563.103 1754.43 556.817C1756.76 555.73 1760.19 553.777 1764.73 550.957C1765.16 550.69 1765.38 550.813 1765.38 551.327V587.137C1765.38 587.341 1765.33 587.542 1765.22 587.719C1765.12 587.896 1764.98 588.044 1764.8 588.147C1761.91 589.84 1758.96 591.24 1755.94 592.347C1738.56 598.68 1719.75 600.78 1699.52 598.647C1680.8 596.667 1663.18 589.737 1649.5 577.167C1633.83 562.767 1624.75 544.287 1622.22 523.377C1619.94 504.587 1622.03 484.387 1630.15 467.617C1644.22 438.547 1671.54 421.417 1703.94 419.097C1723.8 417.677 1744.85 419.967 1762.03 430.237C1762.37 430.443 1762.54 430.747 1762.54 431.147L1762.55 466.557C1762.55 467.103 1762.33 467.22 1761.88 466.907Z" fill="#193C6A"/>
<path d="M1821.38 570.057L1810.14 596.247C1809.98 596.627 1809.7 596.817 1809.29 596.817L1772.02 596.807C1771.94 596.807 1771.87 596.788 1771.8 596.752C1771.73 596.716 1771.68 596.663 1771.64 596.6C1771.6 596.536 1771.57 596.463 1771.57 596.387C1771.56 596.311 1771.58 596.236 1771.61 596.167L1851.74 419.827C1851.9 419.462 1852.17 419.152 1852.51 418.936C1852.84 418.719 1853.23 418.604 1853.64 418.605C1854.04 418.607 1854.43 418.723 1854.77 418.942C1855.1 419.16 1855.37 419.471 1855.54 419.837L1935.49 596.377C1935.51 596.422 1935.52 596.472 1935.52 596.523C1935.51 596.573 1935.5 596.622 1935.47 596.665C1935.44 596.707 1935.4 596.743 1935.36 596.768C1935.31 596.793 1935.26 596.806 1935.21 596.807L1896.27 596.817C1896.12 596.816 1895.97 596.771 1895.85 596.688C1895.72 596.604 1895.62 596.485 1895.57 596.347L1884.58 570.197C1884.47 569.924 1884.26 569.787 1883.97 569.787H1821.79C1821.7 569.787 1821.62 569.813 1821.55 569.861C1821.47 569.909 1821.41 569.977 1821.38 570.057ZM1832.87 540.207C1832.85 540.257 1832.84 540.311 1832.84 540.365C1832.85 540.42 1832.87 540.472 1832.9 540.517C1832.92 540.563 1832.97 540.6 1833.01 540.626C1833.06 540.652 1833.11 540.666 1833.17 540.667H1873.01C1873.06 540.666 1873.12 540.652 1873.16 540.626C1873.21 540.6 1873.25 540.563 1873.28 540.517C1873.31 540.472 1873.33 540.42 1873.33 540.365C1873.34 540.311 1873.33 540.257 1873.31 540.207L1853.39 492.997C1853.36 492.939 1853.32 492.891 1853.27 492.857C1853.21 492.823 1853.15 492.804 1853.09 492.804C1853.03 492.804 1852.96 492.823 1852.91 492.857C1852.86 492.891 1852.81 492.939 1852.79 492.997L1832.87 540.207Z" fill="#193C6A"/>
<path d="M1326.13 421.516L1362.48 421.506C1362.85 421.506 1363.04 421.693 1363.04 422.066V596.296C1363.04 596.696 1362.84 596.889 1362.44 596.876C1357.87 596.722 1353.09 596.726 1348.09 596.886C1342.66 597.053 1338.65 596.592 1336.07 595.506C1329.83 592.896 1325.69 586.946 1325.69 580.176C1325.66 525.249 1325.67 472.499 1325.72 421.926C1325.72 421.653 1325.86 421.516 1326.13 421.516Z" fill="#193C6A"/>
<path d="M903.59 535.187C900.36 551.477 892.1 566.937 878.7 576.347C857.19 591.447 829.25 596.607 802.23 596.757C786.517 596.837 770.857 596.847 755.25 596.787C755.083 596.787 755 596.707 755 596.547V421.867C755 421.673 755.1 421.573 755.3 421.567C770.233 421.467 785.217 421.46 800.25 421.547C816.71 421.627 831.34 422.787 846.24 425.907C852.8 427.287 859.33 429.087 865.51 431.877C876.203 436.697 885.307 444.247 892.82 454.527C898.92 462.877 902.72 473.447 904.41 483.767C907.23 501.087 906.957 518.227 903.59 535.187ZM848.49 461.927C832.26 452.787 812.29 451.917 792.98 451.817C792.507 451.817 792.27 452.053 792.27 452.527V565.597C792.27 565.83 792.387 565.95 792.62 565.957C803.7 566.33 814.173 565.55 824.04 563.617C841.48 560.187 856.95 551.587 863.58 534.257C868.5 521.377 868.98 506.507 867.08 492.907C865.28 480.007 859.89 468.357 848.49 461.927Z" fill="#193C6A"/>
<path d="M1565.4 569.676C1565.34 520.389 1565.33 471.129 1565.38 421.896C1565.38 421.795 1565.42 421.698 1565.49 421.627C1565.57 421.556 1565.67 421.516 1565.77 421.516L1602.23 421.526C1602.6 421.526 1602.78 421.709 1602.78 422.076V596.286C1602.78 596.692 1602.58 596.889 1602.17 596.876C1597.36 596.729 1592.5 596.729 1587.59 596.876C1581.94 597.042 1577.84 596.512 1575.28 595.286C1567.3 591.476 1565.16 584.726 1565.33 576.516C1565.38 574.256 1565.4 571.976 1565.4 569.676Z" fill="#193C6A"/>
<path d="M1680.95 644.796L1687.29 634.516C1687.33 634.447 1687.39 634.394 1687.47 634.366C1687.54 634.339 1687.62 634.339 1687.7 634.366L1691.73 635.826C1691.78 635.843 1691.83 635.873 1691.87 635.912C1691.9 635.95 1691.93 635.998 1691.95 636.05C1691.96 636.102 1691.97 636.156 1691.96 636.21C1691.95 636.263 1691.92 636.313 1691.89 636.356L1685.36 645.166C1685.33 645.209 1685.29 645.243 1685.24 645.268C1685.19 645.292 1685.14 645.305 1685.09 645.306L1681.24 645.316C1681.18 645.316 1681.12 645.3 1681.07 645.269C1681.01 645.239 1680.97 645.195 1680.94 645.141C1680.91 645.088 1680.9 645.028 1680.9 644.968C1680.9 644.907 1680.92 644.847 1680.95 644.796Z" fill="#193C6A"/>
<path d="M2233.8 561.75L2240.2 551.42C2240.24 551.359 2240.3 551.313 2240.36 551.289C2240.43 551.265 2240.5 551.266 2240.57 551.29L2244.65 552.74C2244.7 552.757 2244.74 552.784 2244.77 552.819C2244.8 552.855 2244.83 552.898 2244.84 552.944C2244.86 552.991 2244.86 553.041 2244.85 553.088C2244.84 553.136 2244.82 553.181 2244.79 553.22L2238.28 562.08C2238.25 562.12 2238.22 562.152 2238.17 562.175C2238.13 562.198 2238.08 562.21 2238.03 562.21L2234.07 562.23C2234.01 562.232 2233.96 562.218 2233.91 562.19C2233.86 562.163 2233.82 562.122 2233.79 562.072C2233.76 562.023 2233.75 561.966 2233.75 561.91C2233.75 561.853 2233.77 561.797 2233.8 561.75Z" fill="#193C6A"/>
</svg>
